<?xml version="1.0" encoding="utf-8" standalone="no"?>
<!DOCTYPE svg PUBLIC "-//W3C//DTD SVG 1.1//EN"
  "http://www.w3.org/Graphics/SVG/1.1/DTD/svg11.dtd">
<!-- Created with matplotlib (http://matplotlib.org/) -->
<svg height="184pt" version="1.1" viewBox="0 0 451 184" width="451pt" xmlns="http://www.w3.org/2000/svg" xmlns:xlink="http://www.w3.org/1999/xlink">
 <defs>
  <style type="text/css">
*{stroke-linecap:butt;stroke-linejoin:round;}
  </style>
 </defs>
 <g id="figure_1">
  <g id="patch_1">
   <path d="M 0 184.15625 
L 451.44375 184.15625 
L 451.44375 -0 
L 0 -0 
z
" style="fill:#ffffff;"/>
  </g>
  <g id="axes_1">
   <g id="patch_2">
    <path d="M 50.14375 146.6 
L 440.74375 146.6 
L 440.74375 10.7 
L 50.14375 10.7 
z
" style="fill:#ffffff;"/>
   </g>
   <g id="matplotlib.axis_1">
    <g id="xtick_1">
     <g id="line2d_1">
      <defs>
       <path d="M 0 0 
L 0 3.5 
" id="m51d592a5a0" style="stroke:#000000;stroke-width:0.8;"/>
      </defs>
      <g>
       <use style="stroke:#000000;stroke-width:0.8;" x="67.898295" xlink:href="#m51d592a5a0" y="146.6"/>
      </g>
     </g>
     <g id="text_1">
      <!-- 0 -->
      <defs>
       <path d="M 31.78125 66.40625 
Q 24.171875 66.40625 20.328125 58.90625 
Q 16.5 51.421875 16.5 36.375 
Q 16.5 21.390625 20.328125 13.890625 
Q 24.171875 6.390625 31.78125 6.390625 
Q 39.453125 6.390625 43.28125 13.890625 
Q 47.125 21.390625 47.125 36.375 
Q 47.125 51.421875 43.28125 58.90625 
Q 39.453125 66.40625 31.78125 66.40625 
z
M 31.78125 74.21875 
Q 44.046875 74.21875 50.515625 64.515625 
Q 56.984375 54.828125 56.984375 36.375 
Q 56.984375 17.96875 50.515625 8.265625 
Q 44.046875 -1.421875 31.78125 -1.421875 
Q 19.53125 -1.421875 13.0625 8.265625 
Q 6.59375 17.96875 6.59375 36.375 
Q 6.59375 54.828125 13.0625 64.515625 
Q 19.53125 74.21875 31.78125 74.21875 
z
" id="DejaVuSans-30"/>
      </defs>
      <g transform="translate(64.717045 161.198437)scale(0.1 -0.1)">
       <use xlink:href="#DejaVuSans-30"/>
      </g>
     </g>
    </g>
    <g id="xtick_2">
     <g id="line2d_2">
      <g>
       <use style="stroke:#000000;stroke-width:0.8;" x="154.24049" xlink:href="#m51d592a5a0" y="146.6"/>
      </g>
     </g>
     <g id="text_2">
      <!-- 5000 -->
      <defs>
       <path d="M 10.796875 72.90625 
L 49.515625 72.90625 
L 49.515625 64.59375 
L 19.828125 64.59375 
L 19.828125 46.734375 
Q 21.96875 47.46875 24.109375 47.828125 
Q 26.265625 48.1875 28.421875 48.1875 
Q 40.625 48.1875 47.75 41.5 
Q 54.890625 34.8125 54.890625 23.390625 
Q 54.890625 11.625 47.5625 5.09375 
Q 40.234375 -1.421875 26.90625 -1.421875 
Q 22.3125 -1.421875 17.546875 -0.640625 
Q 12.796875 0.140625 7.71875 1.703125 
L 7.71875 11.625 
Q 12.109375 9.234375 16.796875 8.0625 
Q 21.484375 6.890625 26.703125 6.890625 
Q 35.15625 6.890625 40.078125 11.328125 
Q 45.015625 15.765625 45.015625 23.390625 
Q 45.015625 31 40.078125 35.4375 
Q 35.15625 39.890625 26.703125 39.890625 
Q 22.75 39.890625 18.8125 39.015625 
Q 14.890625 38.140625 10.796875 36.28125 
z
" id="DejaVuSans-35"/>
      </defs>
      <g transform="translate(141.51549 161.198437)scale(0.1 -0.1)">
       <use xlink:href="#DejaVuSans-35"/>
       <use x="63.623047" xlink:href="#DejaVuSans-30"/>
       <use x="127.246094" xlink:href="#DejaVuSans-30"/>
       <use x="190.869141" xlink:href="#DejaVuSans-30"/>
      </g>
     </g>
    </g>
    <g id="xtick_3">
     <g id="line2d_3">
      <g>
       <use style="stroke:#000000;stroke-width:0.8;" x="240.582684" xlink:href="#m51d592a5a0" y="146.6"/>
      </g>
     </g>
     <g id="text_3">
      <!-- 10000 -->
      <defs>
       <path d="M 12.40625 8.296875 
L 28.515625 8.296875 
L 28.515625 63.921875 
L 10.984375 60.40625 
L 10.984375 69.390625 
L 28.421875 72.90625 
L 38.28125 72.90625 
L 38.28125 8.296875 
L 54.390625 8.296875 
L 54.390625 0 
L 12.40625 0 
z
" id="DejaVuSans-31"/>
      </defs>
      <g transform="translate(224.676434 161.198437)scale(0.1 -0.1)">
       <use xlink:href="#DejaVuSans-31"/>
       <use x="63.623047" xlink:href="#DejaVuSans-30"/>
       <use x="127.246094" xlink:href="#DejaVuSans-30"/>
       <use x="190.869141" xlink:href="#DejaVuSans-30"/>
       <use x="254.492188" xlink:href="#DejaVuSans-30"/>
      </g>
     </g>
    </g>
    <g id="xtick_4">
     <g id="line2d_4">
      <g>
       <use style="stroke:#000000;stroke-width:0.8;" x="326.924879" xlink:href="#m51d592a5a0" y="146.6"/>
      </g>
     </g>
     <g id="text_4">
      <!-- 15000 -->
      <g transform="translate(311.018629 161.198437)scale(0.1 -0.1)">
       <use xlink:href="#DejaVuSans-31"/>
       <use x="63.623047" xlink:href="#DejaVuSans-35"/>
       <use x="127.246094" xlink:href="#DejaVuSans-30"/>
       <use x="190.869141" xlink:href="#DejaVuSans-30"/>
       <use x="254.492188" xlink:href="#DejaVuSans-30"/>
      </g>
     </g>
    </g>
    <g id="xtick_5">
     <g id="line2d_5">
      <g>
       <use style="stroke:#000000;stroke-width:0.8;" x="413.267073" xlink:href="#m51d592a5a0" y="146.6"/>
      </g>
     </g>
     <g id="text_5">
      <!-- 20000 -->
      <defs>
       <path d="M 19.1875 8.296875 
L 53.609375 8.296875 
L 53.609375 0 
L 7.328125 0 
L 7.328125 8.296875 
Q 12.9375 14.109375 22.625 23.890625 
Q 32.328125 33.6875 34.8125 36.53125 
Q 39.546875 41.84375 41.421875 45.53125 
Q 43.3125 49.21875 43.3125 52.78125 
Q 43.3125 58.59375 39.234375 62.25 
Q 35.15625 65.921875 28.609375 65.921875 
Q 23.96875 65.921875 18.8125 64.3125 
Q 13.671875 62.703125 7.8125 59.421875 
L 7.8125 69.390625 
Q 13.765625 71.78125 18.9375 73 
Q 24.125 74.21875 28.421875 74.21875 
Q 39.75 74.21875 46.484375 68.546875 
Q 53.21875 62.890625 53.21875 53.421875 
Q 53.21875 48.921875 51.53125 44.890625 
Q 49.859375 40.875 45.40625 35.40625 
Q 44.1875 33.984375 37.640625 27.21875 
Q 31.109375 20.453125 19.1875 8.296875 
z
" id="DejaVuSans-32"/>
      </defs>
      <g transform="translate(397.360823 161.198437)scale(0.1 -0.1)">
       <use xlink:href="#DejaVuSans-32"/>
       <use x="63.623047" xlink:href="#DejaVuSans-30"/>
       <use x="127.246094" xlink:href="#DejaVuSans-30"/>
       <use x="190.869141" xlink:href="#DejaVuSans-30"/>
       <use x="254.492188" xlink:href="#DejaVuSans-30"/>
      </g>
     </g>
    </g>
    <g id="text_6">
     <!-- Packets for this host -->
     <defs>
      <path d="M 19.671875 64.796875 
L 19.671875 37.40625 
L 32.078125 37.40625 
Q 38.96875 37.40625 42.71875 40.96875 
Q 46.484375 44.53125 46.484375 51.125 
Q 46.484375 57.671875 42.71875 61.234375 
Q 38.96875 64.796875 32.078125 64.796875 
z
M 9.8125 72.90625 
L 32.078125 72.90625 
Q 44.34375 72.90625 50.609375 67.359375 
Q 56.890625 61.8125 56.890625 51.125 
Q 56.890625 40.328125 50.609375 34.8125 
Q 44.34375 29.296875 32.078125 29.296875 
L 19.671875 29.296875 
L 19.671875 0 
L 9.8125 0 
z
" id="DejaVuSans-50"/>
      <path d="M 34.28125 27.484375 
Q 23.390625 27.484375 19.1875 25 
Q 14.984375 22.515625 14.984375 16.5 
Q 14.984375 11.71875 18.140625 8.90625 
Q 21.296875 6.109375 26.703125 6.109375 
Q 34.1875 6.109375 38.703125 11.40625 
Q 43.21875 16.703125 43.21875 25.484375 
L 43.21875 27.484375 
z
M 52.203125 31.203125 
L 52.203125 0 
L 43.21875 0 
L 43.21875 8.296875 
Q 40.140625 3.328125 35.546875 0.953125 
Q 30.953125 -1.421875 24.3125 -1.421875 
Q 15.921875 -1.421875 10.953125 3.296875 
Q 6 8.015625 6 15.921875 
Q 6 25.140625 12.171875 29.828125 
Q 18.359375 34.515625 30.609375 34.515625 
L 43.21875 34.515625 
L 43.21875 35.40625 
Q 43.21875 41.609375 39.140625 45 
Q 35.0625 48.390625 27.6875 48.390625 
Q 23 48.390625 18.546875 47.265625 
Q 14.109375 46.140625 10.015625 43.890625 
L 10.015625 52.203125 
Q 14.9375 54.109375 19.578125 55.046875 
Q 24.21875 56 28.609375 56 
Q 40.484375 56 46.34375 49.84375 
Q 52.203125 43.703125 52.203125 31.203125 
z
" id="DejaVuSans-61"/>
      <path d="M 48.78125 52.59375 
L 48.78125 44.1875 
Q 44.96875 46.296875 41.140625 47.34375 
Q 37.3125 48.390625 33.40625 48.390625 
Q 24.65625 48.390625 19.8125 42.84375 
Q 14.984375 37.3125 14.984375 27.296875 
Q 14.984375 17.28125 19.8125 11.734375 
Q 24.65625 6.203125 33.40625 6.203125 
Q 37.3125 6.203125 41.140625 7.25 
Q 44.96875 8.296875 48.78125 10.40625 
L 48.78125 2.09375 
Q 45.015625 0.34375 40.984375 -0.53125 
Q 36.96875 -1.421875 32.421875 -1.421875 
Q 20.0625 -1.421875 12.78125 6.34375 
Q 5.515625 14.109375 5.515625 27.296875 
Q 5.515625 40.671875 12.859375 48.328125 
Q 20.21875 56 33.015625 56 
Q 37.15625 56 41.109375 55.140625 
Q 45.0625 54.296875 48.78125 52.59375 
z
" id="DejaVuSans-63"/>
      <path d="M 9.078125 75.984375 
L 18.109375 75.984375 
L 18.109375 31.109375 
L 44.921875 54.6875 
L 56.390625 54.6875 
L 27.390625 29.109375 
L 57.625 0 
L 45.90625 0 
L 18.109375 26.703125 
L 18.109375 0 
L 9.078125 0 
z
" id="DejaVuSans-6b"/>
      <path d="M 56.203125 29.59375 
L 56.203125 25.203125 
L 14.890625 25.203125 
Q 15.484375 15.921875 20.484375 11.0625 
Q 25.484375 6.203125 34.421875 6.203125 
Q 39.59375 6.203125 44.453125 7.46875 
Q 49.3125 8.734375 54.109375 11.28125 
L 54.109375 2.78125 
Q 49.265625 0.734375 44.1875 -0.34375 
Q 39.109375 -1.421875 33.890625 -1.421875 
Q 20.796875 -1.421875 13.15625 6.1875 
Q 5.515625 13.8125 5.515625 26.8125 
Q 5.515625 40.234375 12.765625 48.109375 
Q 20.015625 56 32.328125 56 
Q 43.359375 56 49.78125 48.890625 
Q 56.203125 41.796875 56.203125 29.59375 
z
M 47.21875 32.234375 
Q 47.125 39.59375 43.09375 43.984375 
Q 39.0625 48.390625 32.421875 48.390625 
Q 24.90625 48.390625 20.390625 44.140625 
Q 15.875 39.890625 15.1875 32.171875 
z
" id="DejaVuSans-65"/>
      <path d="M 18.3125 70.21875 
L 18.3125 54.6875 
L 36.8125 54.6875 
L 36.8125 47.703125 
L 18.3125 47.703125 
L 18.3125 18.015625 
Q 18.3125 11.328125 20.140625 9.421875 
Q 21.96875 7.515625 27.59375 7.515625 
L 36.8125 7.515625 
L 36.8125 0 
L 27.59375 0 
Q 17.1875 0 13.234375 3.875 
Q 9.28125 7.765625 9.28125 18.015625 
L 9.28125 47.703125 
L 2.6875 47.703125 
L 2.6875 54.6875 
L 9.28125 54.6875 
L 9.28125 70.21875 
z
" id="DejaVuSans-74"/>
      <path d="M 44.28125 53.078125 
L 44.28125 44.578125 
Q 40.484375 46.53125 36.375 47.5 
Q 32.28125 48.484375 27.875 48.484375 
Q 21.1875 48.484375 17.84375 46.4375 
Q 14.5 44.390625 14.5 40.28125 
Q 14.5 37.15625 16.890625 35.375 
Q 19.28125 33.59375 26.515625 31.984375 
L 29.59375 31.296875 
Q 39.15625 29.25 43.1875 25.515625 
Q 47.21875 21.78125 47.21875 15.09375 
Q 47.21875 7.46875 41.1875 3.015625 
Q 35.15625 -1.421875 24.609375 -1.421875 
Q 20.21875 -1.421875 15.453125 -0.5625 
Q 10.6875 0.296875 5.421875 2 
L 5.421875 11.28125 
Q 10.40625 8.6875 15.234375 7.390625 
Q 20.0625 6.109375 24.8125 6.109375 
Q 31.15625 6.109375 34.5625 8.28125 
Q 37.984375 10.453125 37.984375 14.40625 
Q 37.984375 18.0625 35.515625 20.015625 
Q 33.0625 21.96875 24.703125 23.78125 
L 21.578125 24.515625 
Q 13.234375 26.265625 9.515625 29.90625 
Q 5.8125 33.546875 5.8125 39.890625 
Q 5.8125 47.609375 11.28125 51.796875 
Q 16.75 56 26.8125 56 
Q 31.78125 56 36.171875 55.265625 
Q 40.578125 54.546875 44.28125 53.078125 
z
" id="DejaVuSans-73"/>
      <path id="DejaVuSans-20"/>
      <path d="M 37.109375 75.984375 
L 37.109375 68.5 
L 28.515625 68.5 
Q 23.6875 68.5 21.796875 66.546875 
Q 19.921875 64.59375 19.921875 59.515625 
L 19.921875 54.6875 
L 34.71875 54.6875 
L 34.71875 47.703125 
L 19.921875 47.703125 
L 19.921875 0 
L 10.890625 0 
L 10.890625 47.703125 
L 2.296875 47.703125 
L 2.296875 54.6875 
L 10.890625 54.6875 
L 10.890625 58.5 
Q 10.890625 67.625 15.140625 71.796875 
Q 19.390625 75.984375 28.609375 75.984375 
z
" id="DejaVuSans-66"/>
      <path d="M 30.609375 48.390625 
Q 23.390625 48.390625 19.1875 42.75 
Q 14.984375 37.109375 14.984375 27.296875 
Q 14.984375 17.484375 19.15625 11.84375 
Q 23.34375 6.203125 30.609375 6.203125 
Q 37.796875 6.203125 41.984375 11.859375 
Q 46.1875 17.53125 46.1875 27.296875 
Q 46.1875 37.015625 41.984375 42.703125 
Q 37.796875 48.390625 30.609375 48.390625 
z
M 30.609375 56 
Q 42.328125 56 49.015625 48.375 
Q 55.71875 40.765625 55.71875 27.296875 
Q 55.71875 13.875 49.015625 6.21875 
Q 42.328125 -1.421875 30.609375 -1.421875 
Q 18.84375 -1.421875 12.171875 6.21875 
Q 5.515625 13.875 5.515625 27.296875 
Q 5.515625 40.765625 12.171875 48.375 
Q 18.84375 56 30.609375 56 
z
" id="DejaVuSans-6f"/>
      <path d="M 41.109375 46.296875 
Q 39.59375 47.171875 37.8125 47.578125 
Q 36.03125 48 33.890625 48 
Q 26.265625 48 22.1875 43.046875 
Q 18.109375 38.09375 18.109375 28.8125 
L 18.109375 0 
L 9.078125 0 
L 9.078125 54.6875 
L 18.109375 54.6875 
L 18.109375 46.1875 
Q 20.953125 51.171875 25.484375 53.578125 
Q 30.03125 56 36.53125 56 
Q 37.453125 56 38.578125 55.875 
Q 39.703125 55.765625 41.0625 55.515625 
z
" id="DejaVuSans-72"/>
      <path d="M 54.890625 33.015625 
L 54.890625 0 
L 45.90625 0 
L 45.90625 32.71875 
Q 45.90625 40.484375 42.875 44.328125 
Q 39.84375 48.1875 33.796875 48.1875 
Q 26.515625 48.1875 22.3125 43.546875 
Q 18.109375 38.921875 18.109375 30.90625 
L 18.109375 0 
L 9.078125 0 
L 9.078125 75.984375 
L 18.109375 75.984375 
L 18.109375 46.1875 
Q 21.34375 51.125 25.703125 53.5625 
Q 30.078125 56 35.796875 56 
Q 45.21875 56 50.046875 50.171875 
Q 54.890625 44.34375 54.890625 33.015625 
z
" id="DejaVuSans-68"/>
      <path d="M 9.421875 54.6875 
L 18.40625 54.6875 
L 18.40625 0 
L 9.421875 0 
z
M 9.421875 75.984375 
L 18.40625 75.984375 
L 18.40625 64.59375 
L 9.421875 64.59375 
z
" id="DejaVuSans-69"/>
     </defs>
     <g transform="translate(194.526563 174.876562)scale(0.1 -0.1)">
      <use xlink:href="#DejaVuSans-50"/>
      <use x="60.240234" xlink:href="#DejaVuSans-61"/>
      <use x="121.519531" xlink:href="#DejaVuSans-63"/>
      <use x="176.5" xlink:href="#DejaVuSans-6b"/>
      <use x="234.363281" xlink:href="#DejaVuSans-65"/>
      <use x="295.886719" xlink:href="#DejaVuSans-74"/>
      <use x="335.095703" xlink:href="#DejaVuSans-73"/>
      <use x="387.195312" xlink:href="#DejaVuSans-20"/>
      <use x="418.982422" xlink:href="#DejaVuSans-66"/>
      <use x="454.1875" xlink:href="#DejaVuSans-6f"/>
      <use x="515.369141" xlink:href="#DejaVuSans-72"/>
      <use x="556.482422" xlink:href="#DejaVuSans-20"/>
      <use x="588.269531" xlink:href="#DejaVuSans-74"/>
      <use x="627.478516" xlink:href="#DejaVuSans-68"/>
      <use x="690.857422" xlink:href="#DejaVuSans-69"/>
      <use x="718.640625" xlink:href="#DejaVuSans-73"/>
      <use x="770.740234" xlink:href="#DejaVuSans-20"/>
      <use x="802.527344" xlink:href="#DejaVuSans-68"/>
      <use x="865.90625" xlink:href="#DejaVuSans-6f"/>
      <use x="927.087891" xlink:href="#DejaVuSans-73"/>
      <use x="979.1875" xlink:href="#DejaVuSans-74"/>
     </g>
    </g>
   </g>
   <g id="matplotlib.axis_2">
    <g id="ytick_1">
     <g id="line2d_6">
      <defs>
       <path d="M 0 0 
L -3.5 0 
" id="m7eab0fc751" style="stroke:#000000;stroke-width:0.8;"/>
      </defs>
      <g>
       <use style="stroke:#000000;stroke-width:0.8;" x="50.14375" xlink:href="#m7eab0fc751" y="140.422727"/>
      </g>
     </g>
     <g id="text_7">
      <!-- 0.0 -->
      <defs>
       <path d="M 10.6875 12.40625 
L 21 12.40625 
L 21 0 
L 10.6875 0 
z
" id="DejaVuSans-2e"/>
      </defs>
      <g transform="translate(27.240625 144.221946)scale(0.1 -0.1)">
       <use xlink:href="#DejaVuSans-30"/>
       <use x="63.623047" xlink:href="#DejaVuSans-2e"/>
       <use x="95.410156" xlink:href="#DejaVuSans-30"/>
      </g>
     </g>
    </g>
    <g id="ytick_2">
     <g id="line2d_7">
      <g>
       <use style="stroke:#000000;stroke-width:0.8;" x="50.14375" xlink:href="#m7eab0fc751" y="112.344215"/>
      </g>
     </g>
     <g id="text_8">
      <!-- 2.5 -->
      <g transform="translate(27.240625 116.143434)scale(0.1 -0.1)">
       <use xlink:href="#DejaVuSans-32"/>
       <use x="63.623047" xlink:href="#DejaVuSans-2e"/>
       <use x="95.410156" xlink:href="#DejaVuSans-35"/>
      </g>
     </g>
    </g>
    <g id="ytick_3">
     <g id="line2d_8">
      <g>
       <use style="stroke:#000000;stroke-width:0.8;" x="50.14375" xlink:href="#m7eab0fc751" y="84.265702"/>
      </g>
     </g>
     <g id="text_9">
      <!-- 5.0 -->
      <g transform="translate(27.240625 88.064921)scale(0.1 -0.1)">
       <use xlink:href="#DejaVuSans-35"/>
       <use x="63.623047" xlink:href="#DejaVuSans-2e"/>
       <use x="95.410156" xlink:href="#DejaVuSans-30"/>
      </g>
     </g>
    </g>
    <g id="ytick_4">
     <g id="line2d_9">
      <g>
       <use style="stroke:#000000;stroke-width:0.8;" x="50.14375" xlink:href="#m7eab0fc751" y="56.18719"/>
      </g>
     </g>
     <g id="text_10">
      <!-- 7.5 -->
      <defs>
       <path d="M 8.203125 72.90625 
L 55.078125 72.90625 
L 55.078125 68.703125 
L 28.609375 0 
L 18.3125 0 
L 43.21875 64.59375 
L 8.203125 64.59375 
z
" id="DejaVuSans-37"/>
      </defs>
      <g transform="translate(27.240625 59.986409)scale(0.1 -0.1)">
       <use xlink:href="#DejaVuSans-37"/>
       <use x="63.623047" xlink:href="#DejaVuSans-2e"/>
       <use x="95.410156" xlink:href="#DejaVuSans-35"/>
      </g>
     </g>
    </g>
    <g id="ytick_5">
     <g id="line2d_10">
      <g>
       <use style="stroke:#000000;stroke-width:0.8;" x="50.14375" xlink:href="#m7eab0fc751" y="28.108678"/>
      </g>
     </g>
     <g id="text_11">
      <!-- 10.0 -->
      <g transform="translate(20.878125 31.907896)scale(0.1 -0.1)">
       <use xlink:href="#DejaVuSans-31"/>
       <use x="63.623047" xlink:href="#DejaVuSans-30"/>
       <use x="127.246094" xlink:href="#DejaVuSans-2e"/>
       <use x="159.033203" xlink:href="#DejaVuSans-30"/>
      </g>
     </g>
    </g>
    <g id="text_12">
     <!-- Flow encoding (discretized) -->
     <defs>
      <path d="M 9.8125 72.90625 
L 51.703125 72.90625 
L 51.703125 64.59375 
L 19.671875 64.59375 
L 19.671875 43.109375 
L 48.578125 43.109375 
L 48.578125 34.8125 
L 19.671875 34.8125 
L 19.671875 0 
L 9.8125 0 
z
" id="DejaVuSans-46"/>
      <path d="M 9.421875 75.984375 
L 18.40625 75.984375 
L 18.40625 0 
L 9.421875 0 
z
" id="DejaVuSans-6c"/>
      <path d="M 4.203125 54.6875 
L 13.1875 54.6875 
L 24.421875 12.015625 
L 35.59375 54.6875 
L 46.1875 54.6875 
L 57.421875 12.015625 
L 68.609375 54.6875 
L 77.59375 54.6875 
L 63.28125 0 
L 52.6875 0 
L 40.921875 44.828125 
L 29.109375 0 
L 18.5 0 
z
" id="DejaVuSans-77"/>
      <path d="M 54.890625 33.015625 
L 54.890625 0 
L 45.90625 0 
L 45.90625 32.71875 
Q 45.90625 40.484375 42.875 44.328125 
Q 39.84375 48.1875 33.796875 48.1875 
Q 26.515625 48.1875 22.3125 43.546875 
Q 18.109375 38.921875 18.109375 30.90625 
L 18.109375 0 
L 9.078125 0 
L 9.078125 54.6875 
L 18.109375 54.6875 
L 18.109375 46.1875 
Q 21.34375 51.125 25.703125 53.5625 
Q 30.078125 56 35.796875 56 
Q 45.21875 56 50.046875 50.171875 
Q 54.890625 44.34375 54.890625 33.015625 
z
" id="DejaVuSans-6e"/>
      <path d="M 45.40625 46.390625 
L 45.40625 75.984375 
L 54.390625 75.984375 
L 54.390625 0 
L 45.40625 0 
L 45.40625 8.203125 
Q 42.578125 3.328125 38.25 0.953125 
Q 33.9375 -1.421875 27.875 -1.421875 
Q 17.96875 -1.421875 11.734375 6.484375 
Q 5.515625 14.40625 5.515625 27.296875 
Q 5.515625 40.1875 11.734375 48.09375 
Q 17.96875 56 27.875 56 
Q 33.9375 56 38.25 53.625 
Q 42.578125 51.265625 45.40625 46.390625 
z
M 14.796875 27.296875 
Q 14.796875 17.390625 18.875 11.75 
Q 22.953125 6.109375 30.078125 6.109375 
Q 37.203125 6.109375 41.296875 11.75 
Q 45.40625 17.390625 45.40625 27.296875 
Q 45.40625 37.203125 41.296875 42.84375 
Q 37.203125 48.484375 30.078125 48.484375 
Q 22.953125 48.484375 18.875 42.84375 
Q 14.796875 37.203125 14.796875 27.296875 
z
" id="DejaVuSans-64"/>
      <path d="M 45.40625 27.984375 
Q 45.40625 37.75 41.375 43.109375 
Q 37.359375 48.484375 30.078125 48.484375 
Q 22.859375 48.484375 18.828125 43.109375 
Q 14.796875 37.75 14.796875 27.984375 
Q 14.796875 18.265625 18.828125 12.890625 
Q 22.859375 7.515625 30.078125 7.515625 
Q 37.359375 7.515625 41.375 12.890625 
Q 45.40625 18.265625 45.40625 27.984375 
z
M 54.390625 6.78125 
Q 54.390625 -7.171875 48.1875 -13.984375 
Q 42 -20.796875 29.203125 -20.796875 
Q 24.46875 -20.796875 20.265625 -20.09375 
Q 16.0625 -19.390625 12.109375 -17.921875 
L 12.109375 -9.1875 
Q 16.0625 -11.328125 19.921875 -12.34375 
Q 23.78125 -13.375 27.78125 -13.375 
Q 36.625 -13.375 41.015625 -8.765625 
Q 45.40625 -4.15625 45.40625 5.171875 
L 45.40625 9.625 
Q 42.625 4.78125 38.28125 2.390625 
Q 33.9375 0 27.875 0 
Q 17.828125 0 11.671875 7.65625 
Q 5.515625 15.328125 5.515625 27.984375 
Q 5.515625 40.671875 11.671875 48.328125 
Q 17.828125 56 27.875 56 
Q 33.9375 56 38.28125 53.609375 
Q 42.625 51.21875 45.40625 46.390625 
L 45.40625 54.6875 
L 54.390625 54.6875 
z
" id="DejaVuSans-67"/>
      <path d="M 31 75.875 
Q 24.46875 64.65625 21.28125 53.65625 
Q 18.109375 42.671875 18.109375 31.390625 
Q 18.109375 20.125 21.3125 9.0625 
Q 24.515625 -2 31 -13.1875 
L 23.1875 -13.1875 
Q 15.875 -1.703125 12.234375 9.375 
Q 8.59375 20.453125 8.59375 31.390625 
Q 8.59375 42.28125 12.203125 53.3125 
Q 15.828125 64.359375 23.1875 75.875 
z
" id="DejaVuSans-28"/>
      <path d="M 5.515625 54.6875 
L 48.1875 54.6875 
L 48.1875 46.484375 
L 14.40625 7.171875 
L 48.1875 7.171875 
L 48.1875 0 
L 4.296875 0 
L 4.296875 8.203125 
L 38.09375 47.515625 
L 5.515625 47.515625 
z
" id="DejaVuSans-7a"/>
      <path d="M 8.015625 75.875 
L 15.828125 75.875 
Q 23.140625 64.359375 26.78125 53.3125 
Q 30.421875 42.28125 30.421875 31.390625 
Q 30.421875 20.453125 26.78125 9.375 
Q 23.140625 -1.703125 15.828125 -13.1875 
L 8.015625 -13.1875 
Q 14.5 -2 17.703125 9.0625 
Q 20.90625 20.125 20.90625 31.390625 
Q 20.90625 42.671875 17.703125 53.65625 
Q 14.5 64.65625 8.015625 75.875 
z
" id="DejaVuSans-29"/>
     </defs>
     <g transform="translate(14.798438 147.375)rotate(-90)scale(0.1 -0.1)">
      <use xlink:href="#DejaVuSans-46"/>
      <use x="57.519531" xlink:href="#DejaVuSans-6c"/>
      <use x="85.302734" xlink:href="#DejaVuSans-6f"/>
      <use x="146.484375" xlink:href="#DejaVuSans-77"/>
      <use x="228.271484" xlink:href="#DejaVuSans-20"/>
      <use x="260.058594" xlink:href="#DejaVuSans-65"/>
      <use x="321.582031" xlink:href="#DejaVuSans-6e"/>
      <use x="384.960938" xlink:href="#DejaVuSans-63"/>
      <use x="439.941406" xlink:href="#DejaVuSans-6f"/>
      <use x="501.123047" xlink:href="#DejaVuSans-64"/>
      <use x="564.599609" xlink:href="#DejaVuSans-69"/>
      <use x="592.382812" xlink:href="#DejaVuSans-6e"/>
      <use x="655.761719" xlink:href="#DejaVuSans-67"/>
      <use x="719.238281" xlink:href="#DejaVuSans-20"/>
      <use x="751.025391" xlink:href="#DejaVuSans-28"/>
      <use x="790.039062" xlink:href="#DejaVuSans-64"/>
      <use x="853.515625" xlink:href="#DejaVuSans-69"/>
      <use x="881.298828" xlink:href="#DejaVuSans-73"/>
      <use x="933.398438" xlink:href="#DejaVuSans-63"/>
      <use x="988.378906" xlink:href="#DejaVuSans-72"/>
      <use x="1029.460938" xlink:href="#DejaVuSans-65"/>
      <use x="1090.984375" xlink:href="#DejaVuSans-74"/>
      <use x="1130.193359" xlink:href="#DejaVuSans-69"/>
      <use x="1157.976562" xlink:href="#DejaVuSans-7a"/>
      <use x="1210.466797" xlink:href="#DejaVuSans-65"/>
      <use x="1271.990234" xlink:href="#DejaVuSans-64"/>
      <use x="1335.466797" xlink:href="#DejaVuSans-29"/>
     </g>
    </g>
   </g>
   <g id="line2d_11">
    <path clip-path="url(#pb865b93e9a)" d="M 67.898295 140.422727 
L 68.986207 140.422727 
L 69.055281 84.265702 
L 69.089818 140.422727 
L 70.05685 140.422727 
L 70.074119 28.108678 
L 70.160461 84.265702 
L 70.177729 84.265702 
L 70.298608 140.422727 
L 71.559205 140.422727 
L 71.628278 84.265702 
L 71.662815 140.422727 
L 72.422626 140.422727 
L 72.526237 84.265702 
L 72.595311 140.422727 
L 72.629848 84.265702 
L 72.664385 84.265702 
L 72.698921 140.422727 
L 72.767995 84.265702 
L 72.802532 84.265702 
L 72.923411 140.422727 
L 73.320585 140.422727 
L 73.389659 84.265702 
L 73.424196 140.422727 
L 74.59845 140.422727 
L 74.667524 84.265702 
L 74.70206 140.422727 
L 76.048999 140.422727 
L 76.118072 84.265702 
L 76.152609 140.422727 
L 76.80881 140.422727 
L 76.929689 84.265702 
L 76.998763 84.265702 
L 77.050568 140.422727 
L 77.102373 84.265702 
L 77.154179 84.265702 
L 77.275058 140.422727 
L 77.344132 84.265702 
L 77.378668 140.422727 
L 77.430474 140.422727 
L 77.551353 84.265702 
L 77.568621 84.265702 
L 77.6895 140.422727 
L 77.706769 84.265702 
L 77.793111 140.422727 
L 78.052138 140.422727 
L 78.121211 84.265702 
L 78.155748 140.422727 
L 79.537223 140.422727 
L 79.606297 84.265702 
L 79.640834 140.422727 
L 80.849625 140.422727 
L 80.918698 84.265702 
L 80.953235 140.422727 
L 82.023878 140.422727 
L 82.092952 84.265702 
L 82.127489 140.422727 
L 82.8873 140.422727 
L 83.008179 84.265702 
L 83.094522 84.265702 
L 83.129059 140.422727 
L 83.198132 84.265702 
L 83.232669 84.265702 
L 83.353548 140.422727 
L 83.422622 84.265702 
L 83.457159 140.422727 
L 83.992481 140.422727 
L 84.061554 84.265702 
L 84.096091 140.422727 
L 85.512103 140.422727 
L 85.581177 84.265702 
L 85.615714 140.422727 
L 86.686357 140.422727 
L 86.807236 84.265702 
L 86.87631 84.265702 
L 86.928115 140.422727 
L 86.97992 84.265702 
L 87.031726 84.265702 
L 87.152605 140.422727 
L 87.187142 140.422727 
L 87.256215 84.265702 
L 87.290752 140.422727 
L 87.342558 140.422727 
L 87.463437 84.265702 
L 87.584316 140.422727 
L 88.931254 140.422727 
L 89.000328 84.265702 
L 89.034865 140.422727 
L 89.898287 140.422727 
L 90.019166 84.265702 
L 90.070971 84.265702 
L 90.19185 140.422727 
L 90.278192 140.422727 
L 90.347266 84.265702 
L 90.381803 140.422727 
L 91.625131 140.422727 
L 91.694204 84.265702 
L 91.728741 140.422727 
L 92.730311 140.422727 
L 92.799384 84.265702 
L 92.833921 140.422727 
L 93.351974 140.422727 
L 93.455585 84.265702 
L 93.524659 140.422727 
L 93.559196 84.265702 
L 93.593733 84.265702 
L 93.628269 140.422727 
L 93.697343 84.265702 
L 93.73188 84.265702 
L 93.835491 140.422727 
L 93.904564 84.265702 
L 93.939101 140.422727 
L 93.973638 140.422727 
L 94.094517 84.265702 
L 94.215396 140.422727 
L 94.267202 140.422727 
L 94.319007 84.265702 
L 94.370812 140.422727 
L 94.871597 140.422727 
L 94.940671 84.265702 
L 94.975208 140.422727 
L 96.563904 140.422727 
L 96.632978 84.265702 
L 96.667515 140.422727 
L 97.910842 140.422727 
L 97.979916 84.265702 
L 98.014453 140.422727 
L 99.15417 140.422727 
L 99.223244 84.265702 
L 99.25778 140.422727 
L 99.913981 140.422727 
L 100.03486 84.265702 
L 100.103934 84.265702 
L 100.155739 140.422727 
L 100.207545 84.265702 
L 100.25935 84.265702 
L 100.380229 140.422727 
L 100.449303 84.265702 
L 100.48384 140.422727 
L 101.122772 140.422727 
L 101.191846 84.265702 
L 101.226383 140.422727 
L 102.538784 140.422727 
L 102.607858 84.265702 
L 102.642395 140.422727 
L 103.816648 140.422727 
L 103.885722 84.265702 
L 103.920259 140.422727 
L 105.198123 140.422727 
L 105.267197 84.265702 
L 105.301734 140.422727 
L 106.406914 140.422727 
L 106.475988 84.265702 
L 106.510525 140.422727 
L 107.512094 140.422727 
L 107.632973 84.265702 
L 107.650242 84.265702 
L 107.684779 140.422727 
L 107.753852 84.265702 
L 107.788389 84.265702 
L 107.822926 140.422727 
L 107.892 84.265702 
L 107.926537 84.265702 
L 108.030147 140.422727 
L 108.151027 84.265702 
L 108.202832 84.265702 
L 108.323711 140.422727 
L 108.513664 140.422727 
L 108.634543 84.265702 
L 108.686348 84.265702 
L 108.807227 140.422727 
L 109.826065 140.422727 
L 109.895139 84.265702 
L 109.929676 140.422727 
L 111.242077 140.422727 
L 111.311151 84.265702 
L 111.345688 140.422727 
L 112.796237 140.422727 
L 112.86531 84.265702 
L 112.899847 140.422727 
L 114.557617 140.422727 
L 114.626691 84.265702 
L 114.661228 140.422727 
L 115.870019 140.422727 
L 115.939092 84.265702 
L 115.973629 140.422727 
L 116.215387 140.422727 
L 116.336267 84.265702 
L 116.474414 84.265702 
L 116.595293 140.422727 
L 116.733441 140.422727 
L 116.837051 84.265702 
L 116.871588 140.422727 
L 116.940662 84.265702 
L 116.975199 84.265702 
L 117.009736 140.422727 
L 117.096078 129.191322 
L 117.113346 140.422727 
L 117.130615 84.265702 
L 118.2876 84.265702 
L 118.356674 140.422727 
L 118.391211 84.265702 
L 118.460285 84.265702 
L 118.581164 140.422727 
L 118.943801 140.422727 
L 119.012875 84.265702 
L 119.047411 140.422727 
L 120.083518 140.422727 
L 120.152592 84.265702 
L 120.187128 140.422727 
L 121.49953 140.422727 
L 121.568604 84.265702 
L 121.60314 140.422727 
L 122.15573 140.422727 
L 122.27661 84.265702 
L 122.362952 84.265702 
L 122.38022 140.422727 
L 122.466562 84.265702 
L 122.483831 84.265702 
L 122.570173 140.422727 
L 122.587441 84.265702 
L 122.691052 84.265702 
L 122.811931 140.422727 
L 123.744427 140.422727 
L 123.813501 84.265702 
L 123.848037 140.422727 
L 124.193406 140.422727 
L 124.26248 84.265702 
L 124.297017 140.422727 
L 125.505808 140.422727 
L 125.59215 129.191322 
L 125.609418 140.422727 
L 125.885713 140.422727 
L 125.954787 84.265702 
L 125.989324 140.422727 
L 126.196545 140.422727 
L 126.265619 84.265702 
L 126.300156 140.422727 
L 127.543483 140.422727 
L 127.612557 84.265702 
L 127.647094 140.422727 
L 127.681631 140.422727 
L 127.80251 84.265702 
L 127.854315 84.265702 
L 127.957926 140.422727 
L 128.027 84.265702 
L 128.061537 140.422727 
L 128.303295 140.422727 
L 128.424174 84.265702 
L 128.493248 84.265702 
L 128.596858 140.422727 
L 128.717737 84.265702 
L 128.838616 140.422727 
L 128.90769 84.265702 
L 128.942227 140.422727 
L 129.045838 140.422727 
L 129.063106 129.191322 
L 129.149448 140.422727 
L 129.408475 140.422727 
L 129.494817 84.265702 
L 129.512085 140.422727 
L 129.529354 140.422727 
L 129.650233 84.265702 
L 129.719307 84.265702 
L 129.753844 140.422727 
L 129.822917 84.265702 
L 129.926528 84.265702 
L 129.961065 140.422727 
L 130.030139 84.265702 
L 130.168286 84.265702 
L 130.202823 140.422727 
L 130.271897 84.265702 
L 130.410044 84.265702 
L 130.530923 140.422727 
L 130.824487 140.422727 
L 130.945366 84.265702 
L 131.446151 84.265702 
L 131.56703 140.422727 
L 131.791519 140.422727 
L 131.912398 84.265702 
L 131.964204 84.265702 
L 132.067814 140.422727 
L 132.136888 84.265702 
L 132.171425 140.422727 
L 132.413183 140.422727 
L 132.534062 84.265702 
L 132.654941 140.422727 
L 135.573308 140.422727 
L 135.694187 84.265702 
L 135.901408 84.265702 
L 136.022287 140.422727 
L 136.125898 84.265702 
L 136.143166 140.422727 
L 136.229508 84.265702 
L 136.31585 84.265702 
L 136.402193 140.422727 
L 136.419461 84.265702 
L 136.436729 84.265702 
L 136.453998 140.422727 
L 136.54034 84.265702 
L 136.557609 84.265702 
L 136.661219 140.422727 
L 136.678488 84.265702 
L 136.76483 140.422727 
L 137.023856 140.422727 
L 137.09293 84.265702 
L 137.127467 140.422727 
L 137.31742 84.265702 
L 138.301721 84.265702 
L 138.4226 140.422727 
L 138.526211 140.422727 
L 138.595284 84.265702 
L 138.629821 140.422727 
L 140.684765 140.422727 
L 140.753839 84.265702 
L 140.788376 140.422727 
L 143.06781 140.422727 
L 143.171421 84.265702 
L 143.2923 140.422727 
L 147.902973 140.422727 
L 148.023852 84.265702 
L 148.075657 84.265702 
L 148.196536 140.422727 
L 156.140018 140.422727 
L 156.209092 84.265702 
L 156.243629 140.422727 
L 158.574868 140.422727 
L 158.609405 28.108678 
L 158.678479 140.422727 
L 159.852733 140.422727 
L 159.887269 28.108678 
L 159.956343 140.422727 
L 161.130597 140.422727 
L 161.251476 84.265702 
L 161.303281 84.265702 
L 161.424161 140.422727 
L 161.510503 140.422727 
L 161.631382 84.265702 
L 161.907677 84.265702 
L 162.011287 140.422727 
L 162.132167 84.265702 
L 162.20124 84.265702 
L 162.322119 140.422727 
L 162.460267 140.422727 
L 162.563878 84.265702 
L 162.684757 140.422727 
L 162.702025 140.422727 
L 162.822904 84.265702 
L 162.943783 140.422727 
L 163.047394 140.422727 
L 163.168273 84.265702 
L 163.185541 84.265702 
L 163.30642 140.422727 
L 163.548179 140.422727 
L 163.669058 84.265702 
L 163.962621 84.265702 
L 164.0835 140.422727 
L 164.135305 140.422727 
L 164.256185 84.265702 
L 164.359795 140.422727 
L 164.463406 84.265702 
L 164.584285 140.422727 
L 164.877848 140.422727 
L 164.895117 84.265702 
L 164.981459 140.422727 
L 164.998727 140.422727 
L 165.015996 84.265702 
L 165.102338 140.422727 
L 165.119606 140.422727 
L 165.18868 84.265702 
L 165.223217 140.422727 
L 165.395901 140.422727 
L 165.516781 84.265702 
L 165.913955 84.265702 
L 165.948492 140.422727 
L 166.017565 84.265702 
L 166.121176 84.265702 
L 166.224787 140.422727 
L 166.311129 84.265702 
L 166.328397 140.422727 
L 166.345666 140.422727 
L 166.466545 84.265702 
L 166.51835 84.265702 
L 166.639229 140.422727 
L 172.49323 140.422727 
L 172.562304 84.265702 
L 172.596841 140.422727 
L 172.942209 140.422727 
L 173.063088 84.265702 
L 173.080357 84.265702 
L 173.201236 140.422727 
L 173.391189 140.422727 
L 173.512068 84.265702 
L 173.546605 84.265702 
L 173.667484 140.422727 
L 176.672192 140.422727 
L 176.775803 129.191322 
L 176.879413 140.422727 
L 177.000292 129.191322 
L 177.103903 140.422727 
L 177.121171 129.191322 
L 177.207514 140.422727 
L 177.742835 140.422727 
L 177.811909 84.265702 
L 177.846446 140.422727 
L 177.950057 140.422727 
L 178.01913 84.265702 
L 178.053667 140.422727 
L 178.329962 140.422727 
L 178.450841 84.265702 
L 178.537183 84.265702 
L 178.658063 140.422727 
L 179.987732 140.422727 
L 180.056806 84.265702 
L 180.091343 140.422727 
L 186.532471 140.422727 
L 186.601544 84.265702 
L 186.636081 140.422727 
L 189.485374 140.422727 
L 189.588984 84.265702 
L 189.658058 140.422727 
L 189.692595 84.265702 
L 189.761669 84.265702 
L 189.796206 140.422727 
L 189.865279 84.265702 
L 189.96889 84.265702 
L 190.072501 140.422727 
L 190.19338 84.265702 
L 190.245185 84.265702 
L 190.366064 140.422727 
L 190.556017 140.422727 
L 190.659628 84.265702 
L 190.780507 140.422727 
L 191.937492 140.422727 
L 192.058371 84.265702 
L 192.092908 84.265702 
L 192.213787 140.422727 
L 192.334666 84.265702 
L 192.455545 140.422727 
L 192.472814 140.422727 
L 192.593693 84.265702 
L 192.645498 84.265702 
L 192.749109 140.422727 
L 192.766377 84.265702 
L 192.852719 140.422727 
L 193.232625 140.422727 
L 193.353504 84.265702 
L 193.422578 84.265702 
L 193.526188 140.422727 
L 193.647068 84.265702 
L 193.73341 84.265702 
L 193.854289 140.422727 
L 193.940631 140.422727 
L 194.06151 84.265702 
L 195.16669 84.265702 
L 195.287569 140.422727 
L 195.304838 140.422727 
L 195.425717 84.265702 
L 195.460254 84.265702 
L 195.581133 140.422727 
L 195.632938 140.422727 
L 195.753817 84.265702 
L 196.410018 84.265702 
L 196.530897 140.422727 
L 196.807192 140.422727 
L 196.82446 84.265702 
L 196.910802 140.422727 
L 197.549735 140.422727 
L 197.567003 84.265702 
L 197.653345 140.422727 
L 197.670614 140.422727 
L 197.791493 84.265702 
L 197.964177 84.265702 
L 198.085056 140.422727 
L 198.257741 140.422727 
L 198.275009 84.265702 
L 198.361351 140.422727 
L 198.48223 140.422727 
L 198.568573 84.265702 
L 198.585841 140.422727 
L 198.620378 140.422727 
L 198.741257 84.265702 
L 198.810331 84.265702 
L 198.93121 140.422727 
L 199.052089 84.265702 
L 199.1557 84.265702 
L 199.276579 140.422727 
L 199.362921 140.422727 
L 199.4838 84.265702 
L 199.570142 84.265702 
L 199.691021 140.422727 
L 199.70829 84.265702 
L 199.794632 140.422727 
L 200.03639 140.422727 
L 200.053658 84.265702 
L 200.140001 140.422727 
L 200.399027 140.422727 
L 200.519906 84.265702 
L 200.554443 84.265702 
L 200.675322 140.422727 
L 201.538744 140.422727 
L 201.659623 84.265702 
L 201.676892 84.265702 
L 201.797771 140.422727 
L 202.056797 140.422727 
L 202.074066 84.265702 
L 202.160408 140.422727 
L 202.57485 140.422727 
L 202.678461 84.265702 
L 202.69573 140.422727 
L 202.782072 84.265702 
L 202.79934 84.265702 
L 202.920219 140.422727 
L 203.02383 140.422727 
L 203.144709 84.265702 
L 203.24832 140.422727 
L 203.35193 84.265702 
L 203.472809 140.422727 
L 203.766373 140.422727 
L 203.887252 84.265702 
L 203.90452 84.265702 
L 204.025399 140.422727 
L 204.802479 140.422727 
L 204.837016 84.265702 
L 204.90609 140.422727 
L 205.044237 140.422727 
L 205.165116 84.265702 
L 205.216922 84.265702 
L 205.303264 28.108678 
L 205.320532 84.265702 
L 205.337801 84.265702 
L 205.45868 140.422727 
L 205.579559 84.265702 
L 205.648633 140.422727 
L 205.683169 84.265702 
L 205.700438 84.265702 
L 205.821317 140.422727 
L 205.890391 84.265702 
L 205.924928 140.422727 
L 205.994001 140.422727 
L 206.01127 84.265702 
L 206.097612 140.422727 
L 206.408444 140.422727 
L 206.529323 84.265702 
L 206.66747 84.265702 
L 206.702007 140.422727 
L 206.771081 84.265702 
L 206.78835 84.265702 
L 206.857423 140.422727 
L 206.89196 84.265702 
L 206.909229 84.265702 
L 206.978302 140.422727 
L 207.012839 84.265702 
L 207.047376 84.265702 
L 207.168255 140.422727 
L 207.185524 140.422727 
L 207.202792 84.265702 
L 207.289134 140.422727 
L 207.44455 140.422727 
L 207.461819 84.265702 
L 207.548161 140.422727 
L 207.617235 140.422727 
L 207.720845 84.265702 
L 207.755382 140.422727 
L 207.824456 84.265702 
L 207.876261 84.265702 
L 207.89353 140.422727 
L 207.979872 84.265702 
L 208.066214 84.265702 
L 208.187093 140.422727 
L 208.204362 140.422727 
L 208.325241 84.265702 
L 208.359777 84.265702 
L 208.463388 140.422727 
L 208.584267 84.265702 
L 208.964173 84.265702 
L 208.99871 140.422727 
L 209.067783 84.265702 
L 209.240468 84.265702 
L 209.361347 140.422727 
L 209.482226 140.422727 
L 209.585837 84.265702 
L 209.706716 140.422727 
L 210.501064 140.422727 
L 210.535601 28.108678 
L 210.604675 140.422727 
L 212.849572 140.422727 
L 212.953182 84.265702 
L 213.074061 140.422727 
L 216.890386 140.422727 
L 216.95946 84.265702 
L 216.993997 140.422727 
L 219.860558 140.422727 
L 219.981437 84.265702 
L 220.361342 84.265702 
L 220.482222 140.422727 
L 220.568564 84.265702 
L 220.585832 140.422727 
L 220.603101 140.422727 
L 220.689443 84.265702 
L 220.706711 140.422727 
L 220.741248 140.422727 
L 220.793053 84.265702 
L 220.844859 140.422727 
L 220.862127 140.422727 
L 220.879396 84.265702 
L 220.965738 140.422727 
L 221.518328 140.422727 
L 221.639207 84.265702 
L 221.760086 140.422727 
L 221.880965 84.265702 
L 222.209065 84.265702 
L 222.243602 140.422727 
L 222.312676 84.265702 
L 222.38175 84.265702 
L 222.502629 140.422727 
L 222.571703 84.265702 
L 222.60624 140.422727 
L 229.720836 140.422727 
L 229.807179 129.191322 
L 229.824447 140.422727 
L 229.858984 140.422727 
L 229.962595 129.191322 
L 229.997131 140.422727 
L 230.066205 129.191322 
L 230.083474 129.191322 
L 230.204353 140.422727 
L 233.32994 140.422727 
L 233.433551 84.265702 
L 233.55443 140.422727 
L 233.813456 140.422727 
L 233.917067 84.265702 
L 233.951604 140.422727 
L 234.020678 84.265702 
L 234.10702 84.265702 
L 234.227899 140.422727 
L 235.160395 140.422727 
L 235.229468 84.265702 
L 235.264005 140.422727 
L 235.333079 140.422727 
L 235.453958 84.265702 
L 235.505763 84.265702 
L 235.5403 140.422727 
L 235.609374 84.265702 
L 235.76479 84.265702 
L 235.851132 140.422727 
L 235.868401 84.265702 
L 235.972011 84.265702 
L 236.075622 140.422727 
L 236.196501 84.265702 
L 236.31738 140.422727 
L 237.318949 140.422727 
L 237.439829 84.265702 
L 237.560708 84.265702 
L 237.681587 140.422727 
L 237.698855 140.422727 
L 237.767929 84.265702 
L 237.802466 140.422727 
L 237.87154 140.422727 
L 237.97515 84.265702 
L 238.096029 140.422727 
L 238.113298 140.422727 
L 238.234177 84.265702 
L 238.285982 84.265702 
L 238.406861 140.422727 
L 241.18708 140.422727 
L 241.256154 84.265702 
L 241.29069 140.422727 
L 241.981428 140.422727 
L 242.102307 84.265702 
L 242.240455 84.265702 
L 242.361334 140.422727 
L 242.395871 140.422727 
L 242.51675 84.265702 
L 242.568555 84.265702 
L 242.689434 140.422727 
L 243.328366 140.422727 
L 243.39744 84.265702 
L 243.431977 140.422727 
L 245.348774 140.422727 
L 245.435116 84.265702 
L 245.452384 140.422727 
L 246.05678 140.422727 
L 246.177659 16.877273 
L 246.212196 28.108678 
L 246.246732 140.422727 
L 246.315806 28.108678 
L 246.350343 28.108678 
L 246.436685 140.422727 
L 246.453954 28.108678 
L 246.540296 28.108678 
L 246.661175 140.422727 
L 246.730249 140.422727 
L 246.782054 28.108678 
L 246.833859 140.422727 
L 246.885665 140.422727 
L 246.989275 28.108678 
L 247.110154 140.422727 
L 247.231033 140.422727 
L 247.334644 28.108678 
L 247.455523 140.422727 
L 247.472792 140.422727 
L 247.593671 28.108678 
L 247.71455 140.422727 
L 247.731818 140.422727 
L 247.852697 28.108678 
L 247.869966 28.108678 
L 247.973576 140.422727 
L 248.077187 28.108678 
L 248.198066 140.422727 
L 248.232603 140.422727 
L 248.284408 28.108678 
L 248.336214 140.422727 
L 248.353482 140.422727 
L 248.474361 28.108678 
L 248.526166 28.108678 
L 248.629777 84.265702 
L 248.698851 28.108678 
L 248.716119 140.422727 
L 248.733388 140.422727 
L 248.854267 28.108678 
L 248.940609 140.422727 
L 248.957877 28.108678 
L 248.975146 28.108678 
L 249.096025 140.422727 
L 249.182367 28.108678 
L 249.199635 140.422727 
L 249.216904 140.422727 
L 249.337783 28.108678 
L 249.389588 28.108678 
L 249.510467 140.422727 
L 249.527736 140.422727 
L 249.614078 28.108678 
L 249.631346 84.265702 
L 249.683152 140.422727 
L 249.734957 84.265702 
L 249.752226 84.265702 
L 249.804031 28.108678 
L 249.855836 140.422727 
L 249.907641 28.108678 
L 249.959447 140.422727 
L 249.976715 140.422727 
L 250.063057 28.108678 
L 250.080326 140.422727 
L 250.097594 140.422727 
L 250.132131 28.108678 
L 250.201205 140.422727 
L 250.235742 140.422727 
L 250.356621 28.108678 
L 250.408426 28.108678 
L 250.529305 140.422727 
L 250.546574 140.422727 
L 250.598379 28.108678 
L 250.650184 140.422727 
L 250.684721 140.422727 
L 250.8056 28.108678 
L 250.943748 28.108678 
L 250.978285 140.422727 
L 251.047358 28.108678 
L 251.064627 28.108678 
L 251.116432 16.877273 
L 251.168237 140.422727 
L 251.25458 28.108678 
L 251.271848 140.422727 
L 251.289117 140.422727 
L 251.340922 28.108678 
L 251.392727 84.265702 
L 251.548143 84.265702 
L 251.58268 140.422727 
L 251.599948 28.108678 
L 251.651754 84.265702 
L 252.031659 84.265702 
L 252.100733 28.108678 
L 252.066196 140.422727 
L 252.13527 84.265702 
L 252.307954 84.265702 
L 252.394297 28.108678 
L 252.411565 140.422727 
L 252.532444 28.108678 
L 252.566981 28.108678 
L 252.68786 140.422727 
L 252.826008 28.108678 
L 252.877813 28.108678 
L 252.91235 140.422727 
L 252.981424 28.108678 
L 253.033229 28.108678 
L 253.13684 84.265702 
L 253.171376 140.422727 
L 253.223182 28.108678 
L 253.344061 140.422727 
L 253.395866 140.422727 
L 253.499477 28.108678 
L 253.620356 140.422727 
L 253.637624 140.422727 
L 253.68943 84.265702 
L 253.741235 140.422727 
L 253.758503 140.422727 
L 253.862114 28.108678 
L 253.965725 140.422727 
L 254.01753 28.108678 
L 254.069335 140.422727 
L 254.086604 140.422727 
L 254.103872 28.108678 
L 254.190214 129.191322 
L 254.224751 140.422727 
L 254.34563 28.108678 
L 254.414704 140.422727 
L 254.449241 28.108678 
L 254.466509 28.108678 
L 254.587388 140.422727 
L 254.639194 140.422727 
L 254.760073 28.108678 
L 254.777341 28.108678 
L 254.880952 140.422727 
L 254.950026 28.108678 
L 254.984562 84.265702 
L 255.295394 84.265702 
L 255.416273 140.422727 
L 255.502616 140.422727 
L 255.588958 28.108678 
L 255.606226 140.422727 
L 255.623495 140.422727 
L 255.640763 28.108678 
L 255.727105 140.422727 
L 255.744374 140.422727 
L 255.847984 28.108678 
L 255.968864 140.422727 
L 256.055206 28.108678 
L 256.072474 140.422727 
L 256.089743 140.422727 
L 256.176085 28.108678 
L 256.193353 140.422727 
L 256.210622 140.422727 
L 256.245159 28.108678 
L 256.314232 140.422727 
L 256.383306 140.422727 
L 256.504185 28.108678 
L 256.521454 28.108678 
L 256.642333 140.422727 
L 256.659601 140.422727 
L 256.78048 28.108678 
L 256.797749 28.108678 
L 256.884091 140.422727 
L 256.901359 28.108678 
L 256.970433 28.108678 
L 257.091312 140.422727 
L 257.10858 140.422727 
L 257.194923 28.108678 
L 257.212191 140.422727 
L 257.22946 140.422727 
L 257.315802 28.108678 
L 257.33307 140.422727 
L 257.350339 140.422727 
L 257.471218 28.108678 
L 257.505755 28.108678 
L 257.626634 140.422727 
L 257.712976 140.422727 
L 257.833855 28.108678 
L 257.88566 28.108678 
L 258.006539 140.422727 
L 258.127418 140.422727 
L 258.231029 28.108678 
L 258.369177 140.422727 
L 258.403713 140.422727 
L 258.490056 28.108678 
L 258.507324 140.422727 
L 258.524592 140.422727 
L 258.628203 28.108678 
L 258.714545 140.422727 
L 258.731814 28.108678 
L 258.766351 28.108678 
L 258.835424 140.422727 
L 258.869961 28.108678 
L 258.88723 28.108678 
L 258.99084 140.422727 
L 259.111719 28.108678 
L 259.180793 28.108678 
L 259.301672 140.422727 
L 259.318941 140.422727 
L 259.405283 28.108678 
L 259.422551 140.422727 
L 259.43982 140.422727 
L 259.54343 28.108678 
L 259.664309 140.422727 
L 262.651749 140.422727 
L 262.720823 84.265702 
L 262.75536 140.422727 
L 262.928044 140.422727 
L 263.048923 84.265702 
L 263.411561 84.265702 
L 263.515171 140.422727 
L 263.63605 84.265702 
L 263.756929 140.422727 
L 263.774198 140.422727 
L 263.895077 84.265702 
L 263.998688 84.265702 
L 264.033224 140.422727 
L 264.102298 84.265702 
L 264.240446 84.265702 
L 264.361325 140.422727 
L 264.41313 140.422727 
L 264.430399 129.191322 
L 264.516741 140.422727 
L 264.534009 140.422727 
L 264.63762 84.265702 
L 264.672157 140.422727 
L 264.74123 84.265702 
L 265.052062 84.265702 
L 265.172941 140.422727 
L 265.19021 140.422727 
L 265.293821 84.265702 
L 265.362894 140.422727 
L 265.397431 84.265702 
L 266.105437 84.265702 
L 266.122706 140.422727 
L 266.209048 84.265702 
L 266.243585 84.265702 
L 266.29539 140.422727 
L 266.347195 84.265702 
L 266.364464 84.265702 
L 266.485343 140.422727 
L 266.51988 140.422727 
L 266.537148 84.265702 
L 266.62349 140.422727 
L 266.640759 140.422727 
L 266.761638 84.265702 
L 266.796175 84.265702 
L 266.882517 140.422727 
L 266.899785 84.265702 
L 266.951591 84.265702 
L 267.07247 140.422727 
L 267.763207 140.422727 
L 267.884086 84.265702 
L 267.935892 84.265702 
L 268.056771 140.422727 
L 268.246724 140.422727 
L 268.333066 84.265702 
L 268.350334 140.422727 
L 268.367603 140.422727 
L 268.453945 84.265702 
L 268.471213 140.422727 
L 268.661166 140.422727 
L 268.782045 84.265702 
L 268.83385 84.265702 
L 268.95473 140.422727 
L 269.593662 140.422727 
L 269.714541 84.265702 
L 269.766346 84.265702 
L 269.83542 140.422727 
L 269.869957 84.265702 
L 269.887225 84.265702 
L 270.008104 140.422727 
L 270.077178 140.422727 
L 270.146252 84.265702 
L 270.180789 140.422727 
L 270.560694 140.422727 
L 270.629768 84.265702 
L 270.664305 140.422727 
L 274.791462 140.422727 
L 274.912341 84.265702 
L 275.03322 140.422727 
L 275.758494 140.422727 
L 275.827568 84.265702 
L 275.862105 140.422727 
L 276.103863 140.422727 
L 276.172937 84.265702 
L 276.207474 140.422727 
L 276.345621 140.422727 
L 276.414695 84.265702 
L 276.449232 140.422727 
L 276.58738 140.422727 
L 276.621916 28.108678 
L 276.69099 140.422727 
L 276.725527 140.422727 
L 276.829138 84.265702 
L 276.950017 140.422727 
L 277.278117 140.422727 
L 277.381728 84.265702 
L 277.485338 140.422727 
L 277.606217 84.265702 
L 277.623486 84.265702 
L 277.69256 140.422727 
L 277.727097 84.265702 
L 277.761633 84.265702 
L 277.882512 140.422727 
L 278.452371 140.422727 
L 278.555982 84.265702 
L 278.590518 140.422727 
L 278.659592 84.265702 
L 278.745934 84.265702 
L 278.866813 140.422727 
L 278.884082 140.422727 
L 278.90135 84.265702 
L 278.987693 140.422727 
L 280.904489 140.422727 
L 281.025368 84.265702 
L 281.146247 140.422727 
L 281.180784 140.422727 
L 281.301663 84.265702 
L 281.370737 84.265702 
L 281.491616 140.422727 
L 283.840124 140.422727 
L 283.943735 84.265702 
L 284.064614 140.422727 
L 284.22003 140.422727 
L 284.289103 84.265702 
L 284.32364 140.422727 
L 284.979841 140.422727 
L 285.014378 28.108678 
L 285.083451 140.422727 
L 286.395853 140.422727 
L 286.464927 84.265702 
L 286.499463 140.422727 
L 288.433529 140.422727 
L 288.502602 84.265702 
L 288.537139 140.422727 
L 289.331487 140.422727 
L 289.452367 84.265702 
L 289.504172 84.265702 
L 289.625051 140.422727 
L 291.300089 140.422727 
L 291.369163 84.265702 
L 291.4037 140.422727 
L 293.648597 140.422727 
L 293.717671 84.265702 
L 293.752208 140.422727 
L 293.855818 140.422727 
L 293.959429 84.265702 
L 294.080308 140.422727 
L 294.270261 140.422727 
L 294.39114 84.265702 
L 294.442945 84.265702 
L 294.563824 140.422727 
L 294.788314 140.422727 
L 294.857388 84.265702 
L 294.891925 140.422727 
L 294.926462 140.422727 
L 295.030072 84.265702 
L 295.150951 140.422727 
L 296.307937 140.422727 
L 296.342474 28.108678 
L 296.411547 140.422727 
L 296.964137 140.422727 
L 297.033211 84.265702 
L 297.067748 140.422727 
L 299.070887 140.422727 
L 299.191766 84.265702 
L 299.243571 84.265702 
L 299.36445 140.422727 
L 299.554403 140.422727 
L 299.623477 84.265702 
L 299.658014 140.422727 
L 300.625047 140.422727 
L 300.745926 84.265702 
L 300.797731 84.265702 
L 300.91861 140.422727 
L 302.662722 140.422727 
L 302.731796 84.265702 
L 302.766333 140.422727 
L 305.719236 140.422727 
L 305.753773 28.108678 
L 305.840115 84.265702 
L 305.857383 84.265702 
L 305.978263 140.422727 
L 308.620334 140.422727 
L 308.689407 84.265702 
L 308.723944 140.422727 
L 311.417821 140.422727 
L 311.486895 84.265702 
L 311.521431 140.422727 
L 313.593644 140.422727 
L 313.714523 84.265702 
L 313.766329 84.265702 
L 313.800865 140.422727 
L 313.869939 84.265702 
L 313.904476 84.265702 
L 314.025355 140.422727 
L 315.234146 140.422727 
L 315.355025 84.265702 
L 315.40683 84.265702 
L 315.527709 140.422727 
L 316.132105 140.422727 
L 316.201178 84.265702 
L 316.235715 140.422727 
L 317.340895 140.422727 
L 317.461774 84.265702 
L 317.51358 84.265702 
L 317.634459 140.422727 
L 317.755338 140.422727 
L 317.789875 28.108678 
L 317.876217 84.265702 
L 317.928022 84.265702 
L 318.048901 140.422727 
L 318.273391 140.422727 
L 318.307928 28.108678 
L 318.377002 140.422727 
L 318.825981 140.422727 
L 318.94686 84.265702 
L 318.998665 84.265702 
L 319.119545 140.422727 
L 319.309497 140.422727 
L 319.378571 84.265702 
L 319.413108 140.422727 
L 321.968837 140.422727 
L 322.037911 84.265702 
L 322.072448 140.422727 
L 323.074017 140.422727 
L 323.177628 84.265702 
L 323.298507 140.422727 
L 323.384849 140.422727 
L 323.48846 84.265702 
L 323.609339 140.422727 
L 324.904472 140.422727 
L 324.973545 84.265702 
L 325.008082 140.422727 
L 325.180767 140.422727 
L 325.284377 84.265702 
L 325.405256 140.422727 
L 326.009652 140.422727 
L 326.113262 84.265702 
L 326.234141 140.422727 
L 326.25141 140.422727 
L 326.320484 84.265702 
L 326.35502 140.422727 
L 326.389557 140.422727 
L 326.510436 84.265702 
L 326.562242 84.265702 
L 326.683121 140.422727 
L 326.838537 140.422727 
L 326.907611 84.265702 
L 326.942147 140.422727 
L 326.976684 140.422727 
L 327.097563 84.265702 
L 327.183906 84.265702 
L 327.304785 140.422727 
L 328.323622 140.422727 
L 328.427233 84.265702 
L 328.548112 140.422727 
L 328.703528 140.422727 
L 328.841676 28.108678 
L 328.876213 28.108678 
L 328.997092 140.422727 
L 331.345599 140.422727 
L 331.414673 84.265702 
L 331.44921 140.422727 
L 332.036337 140.422727 
L 332.139947 84.265702 
L 332.260827 140.422727 
L 332.433511 140.422727 
L 332.502585 84.265702 
L 332.537122 129.191322 
L 332.571658 140.422727 
L 332.623464 28.108678 
L 332.692538 84.265702 
L 332.813417 140.422727 
L 332.830685 140.422727 
L 332.951564 84.265702 
L 333.227859 84.265702 
L 333.262396 140.422727 
L 333.33147 84.265702 
L 333.348738 84.265702 
L 333.383275 140.422727 
L 333.452349 84.265702 
L 333.555959 84.265702 
L 333.676839 140.422727 
L 333.728644 140.422727 
L 333.849523 84.265702 
L 334.522992 84.265702 
L 334.643871 140.422727 
L 334.730213 84.265702 
L 334.747482 140.422727 
L 334.76475 140.422727 
L 334.885629 84.265702 
L 334.937435 84.265702 
L 335.006508 140.422727 
L 335.041045 84.265702 
L 335.282803 84.265702 
L 335.369146 140.422727 
L 335.386414 84.265702 
L 335.472756 84.265702 
L 335.576367 140.422727 
L 335.697246 84.265702 
L 335.714514 84.265702 
L 335.818125 140.422727 
L 335.887199 84.265702 
L 335.921736 140.422727 
L 335.990809 140.422727 
L 336.111688 84.265702 
L 336.560668 84.265702 
L 336.629742 140.422727 
L 336.664278 84.265702 
L 336.733352 84.265702 
L 336.836963 140.422727 
L 336.957842 84.265702 
L 337.009647 84.265702 
L 337.130526 140.422727 
L 337.216869 140.422727 
L 337.234137 84.265702 
L 337.320479 140.422727 
L 337.406821 140.422727 
L 337.5277 84.265702 
L 337.683116 84.265702 
L 337.734922 140.422727 
L 337.786727 84.265702 
L 337.890338 84.265702 
L 338.011217 140.422727 
L 338.132096 84.265702 
L 338.598344 84.265702 
L 338.667417 140.422727 
L 338.701954 84.265702 
L 338.788296 84.265702 
L 338.822833 140.422727 
L 338.891907 84.265702 
L 339.40996 84.265702 
L 339.444497 140.422727 
L 339.513571 84.265702 
L 339.63445 84.265702 
L 339.755329 140.422727 
L 339.807134 140.422727 
L 339.910745 84.265702 
L 340.031624 140.422727 
L 340.117966 140.422727 
L 340.18704 84.265702 
L 340.221577 140.422727 
L 340.463335 140.422727 
L 340.480603 84.265702 
L 340.566946 140.422727 
L 340.584214 140.422727 
L 340.705093 84.265702 
L 340.825972 140.422727 
L 342.224716 140.422727 
L 342.29379 84.265702 
L 342.328326 140.422727 
L 342.777306 140.422727 
L 342.880916 84.265702 
L 342.984527 140.422727 
L 343.053601 84.265702 
L 343.088138 140.422727 
L 343.295359 140.422727 
L 343.364433 84.265702 
L 343.39897 140.422727 
L 343.433507 140.422727 
L 343.554386 84.265702 
L 343.640728 84.265702 
L 343.761607 140.422727 
L 343.847949 140.422727 
L 343.968828 84.265702 
L 344.05517 84.265702 
L 344.176049 140.422727 
L 344.987666 140.422727 
L 345.108545 84.265702 
L 345.229424 84.265702 
L 345.350303 140.422727 
L 345.574793 140.422727 
L 345.695672 84.265702 
L 345.71294 84.265702 
L 345.83382 140.422727 
L 347.474321 140.422727 
L 347.5952 84.265702 
L 347.647006 84.265702 
L 347.767885 140.422727 
L 347.81969 140.422727 
L 347.906032 28.108678 
L 347.923301 140.422727 
L 347.975106 140.422727 
L 348.04418 28.108678 
L 348.078717 140.422727 
L 350.858935 140.422727 
L 350.979814 84.265702 
L 351.03162 84.265702 
L 351.13523 140.422727 
L 351.152499 129.191322 
L 351.238841 140.422727 
L 351.307915 84.265702 
L 351.342452 140.422727 
L 351.532404 140.422727 
L 351.636015 84.265702 
L 351.756894 140.422727 
L 351.808699 140.422727 
L 351.929578 84.265702 
L 352.188605 84.265702 
L 352.292216 140.422727 
L 352.395826 84.265702 
L 352.516705 140.422727 
L 352.706658 140.422727 
L 352.793 84.265702 
L 352.810269 140.422727 
L 352.879343 140.422727 
L 353.000222 84.265702 
L 353.224711 84.265702 
L 353.34559 140.422727 
L 355.832246 140.422727 
L 355.935856 84.265702 
L 356.056735 140.422727 
L 362.601474 140.422727 
L 362.722353 84.265702 
L 362.774158 84.265702 
L 362.877769 140.422727 
L 362.998648 84.265702 
L 363.08499 84.265702 
L 363.119527 140.422727 
L 363.188601 84.265702 
L 363.430359 84.265702 
L 363.551238 140.422727 
L 363.603043 140.422727 
L 363.723922 84.265702 
L 363.810264 84.265702 
L 363.931144 140.422727 
L 364.172902 140.422727 
L 364.241975 84.265702 
L 364.276512 140.422727 
L 364.449197 140.422727 
L 364.552807 84.265702 
L 364.656418 140.422727 
L 364.725492 84.265702 
L 364.760029 140.422727 
L 365.07086 140.422727 
L 365.19174 84.265702 
L 365.278082 84.265702 
L 365.381692 140.422727 
L 365.502571 84.265702 
L 365.796135 84.265702 
L 365.830672 140.422727 
L 365.899746 84.265702 
L 366.037893 84.265702 
L 366.106967 140.422727 
L 366.141504 84.265702 
L 366.314188 84.265702 
L 366.435067 140.422727 
L 366.452336 140.422727 
L 366.573215 84.265702 
L 367.281221 84.265702 
L 367.315758 140.422727 
L 367.384831 84.265702 
L 367.7302 84.265702 
L 367.851079 140.422727 
L 367.868348 140.422727 
L 367.971958 84.265702 
L 368.075569 140.422727 
L 368.196448 84.265702 
L 368.28279 84.265702 
L 368.403669 140.422727 
L 368.524548 140.422727 
L 368.645427 84.265702 
L 368.73177 84.265702 
L 368.852649 140.422727 
L 370.510419 140.422727 
L 370.614029 84.265702 
L 370.734908 140.422727 
L 370.786714 84.265702 
L 370.838519 140.422727 
L 370.855788 140.422727 
L 370.976667 84.265702 
L 371.04574 84.265702 
L 371.149351 140.422727 
L 371.166619 84.265702 
L 371.252962 140.422727 
L 371.27023 140.422727 
L 371.391109 84.265702 
L 372.392679 84.265702 
L 372.427215 140.422727 
L 372.496289 84.265702 
L 372.565363 84.265702 
L 372.5999 140.422727 
L 372.668974 84.265702 
L 372.686242 84.265702 
L 372.755316 140.422727 
L 372.789853 84.265702 
L 372.82439 84.265702 
L 372.945269 140.422727 
L 373.066148 84.265702 
L 373.860496 84.265702 
L 373.895033 140.422727 
L 373.964107 84.265702 
L 374.03318 84.265702 
L 374.102254 140.422727 
L 374.136791 84.265702 
L 374.827528 84.265702 
L 374.948408 140.422727 
L 375.069287 140.422727 
L 375.190166 129.191322 
L 375.311045 140.422727 
L 375.345582 140.422727 
L 375.466461 129.191322 
L 375.58734 140.422727 
L 375.708219 129.191322 
L 375.829098 140.422727 
L 375.863635 140.422727 
L 375.932709 84.265702 
L 375.967245 140.422727 
L 376.036319 140.422727 
L 376.157198 129.191322 
L 376.209004 140.422727 
L 376.329883 84.265702 
L 376.986083 84.265702 
L 377.106962 140.422727 
L 377.141499 140.422727 
L 377.262378 84.265702 
L 377.296915 84.265702 
L 377.417794 140.422727 
L 377.4696 140.422727 
L 377.590479 84.265702 
L 377.659552 84.265702 
L 377.780432 140.422727 
L 377.901311 84.265702 
L 378.02219 140.422727 
L 378.091263 140.422727 
L 378.212142 84.265702 
L 378.298485 84.265702 
L 378.333022 140.422727 
L 378.384827 84.265702 
L 378.402095 28.108678 
L 378.488438 84.265702 
L 378.57478 84.265702 
L 378.695659 140.422727 
L 378.885612 140.422727 
L 378.90288 129.191322 
L 378.989222 140.422727 
L 379.092833 140.422727 
L 379.144638 84.265702 
L 379.196443 140.422727 
L 379.213712 140.422727 
L 379.351859 28.108678 
L 379.490007 140.422727 
L 379.524544 140.422727 
L 379.645423 84.265702 
L 379.749034 140.422727 
L 379.869913 84.265702 
L 379.921718 84.265702 
L 379.956255 28.108678 
L 380.025329 84.265702 
L 380.094402 84.265702 
L 380.215281 140.422727 
L 380.267087 140.422727 
L 380.33616 28.108678 
L 380.387966 84.265702 
L 380.439771 84.265702 
L 380.56065 140.422727 
L 380.577919 140.422727 
L 380.612455 84.265702 
L 380.681529 140.422727 
L 380.716066 140.422727 
L 380.836945 84.265702 
L 381.026898 84.265702 
L 381.061435 140.422727 
L 381.130509 84.265702 
L 381.216851 84.265702 
L 381.303193 140.422727 
L 381.320461 84.265702 
L 381.510414 84.265702 
L 381.596757 140.422727 
L 381.614025 84.265702 
L 381.648562 84.265702 
L 381.769441 140.422727 
L 381.924857 140.422727 
L 382.063004 28.108678 
L 382.097541 28.108678 
L 382.235689 140.422727 
L 382.546521 140.422727 
L 382.581058 84.265702 
L 382.650131 140.422727 
L 382.719205 140.422727 
L 382.77101 84.265702 
L 382.822816 140.422727 
L 382.874621 140.422727 
L 382.960963 84.265702 
L 382.978232 140.422727 
L 383.030037 140.422727 
L 383.150916 84.265702 
L 383.185453 140.422727 
L 383.237258 84.265702 
L 383.358137 28.108678 
L 383.461748 84.265702 
L 383.479016 28.108678 
L 383.565359 84.265702 
L 383.807117 84.265702 
L 383.927996 140.422727 
L 384.048875 84.265702 
L 386.259235 84.265702 
L 386.293772 140.422727 
L 386.362846 84.265702 
L 386.380114 84.265702 
L 386.500993 140.422727 
L 386.690946 140.422727 
L 386.811825 84.265702 
L 387.450757 84.265702 
L 387.571636 140.422727 
L 387.727052 140.422727 
L 387.778858 84.265702 
L 387.830663 129.191322 
L 387.882468 140.422727 
L 387.899737 84.265702 
L 387.986079 140.422727 
L 388.003347 140.422727 
L 388.124226 129.191322 
L 388.245105 140.422727 
L 388.348716 84.265702 
L 388.469595 140.422727 
L 388.590474 84.265702 
L 388.728622 84.265702 
L 388.763159 140.422727 
L 388.832232 84.265702 
L 389.488433 84.265702 
L 389.52297 140.422727 
L 389.592044 84.265702 
L 389.643849 84.265702 
L 389.712923 28.108678 
L 389.74746 84.265702 
L 389.816533 84.265702 
L 389.885607 28.108678 
L 389.920144 84.265702 
L 390.110097 84.265702 
L 390.213708 140.422727 
L 390.334587 84.265702 
L 390.351855 84.265702 
L 390.472734 140.422727 
L 390.524539 140.422727 
L 390.62815 84.265702 
L 390.749029 140.422727 
L 390.800834 140.422727 
L 390.921714 84.265702 
L 393.304758 84.265702 
L 393.408369 140.422727 
L 393.494711 84.265702 
L 393.511979 140.422727 
L 393.546516 140.422727 
L 393.667395 84.265702 
L 393.771006 84.265702 
L 393.891885 140.422727 
L 393.960959 140.422727 
L 394.081838 84.265702 
L 395.135213 84.265702 
L 395.256092 140.422727 
L 395.27336 140.422727 
L 395.394239 84.265702 
L 396.119514 84.265702 
L 396.240393 140.422727 
L 396.257661 140.422727 
L 396.37854 84.265702 
L 396.499419 140.422727 
L 396.879325 140.422727 
L 396.913862 28.108678 
L 396.982936 140.422727 
L 398.226263 140.422727 
L 398.329874 84.265702 
L 398.398948 140.422727 
L 398.433484 84.265702 
L 398.537095 84.265702 
L 398.657974 140.422727 
L 401.956246 140.422727 
L 401.973514 129.191322 
L 402.059857 140.422727 
L 404.78827 140.422727 
L 404.822807 28.108678 
L 404.891881 140.422727 
L 405.789839 140.422727 
L 405.910718 84.265702 
L 405.962524 84.265702 
L 406.083403 140.422727 
L 408.414642 140.422727 
L 408.483716 84.265702 
L 408.518253 140.422727 
L 409.019037 140.422727 
L 409.053574 28.108678 
L 409.122648 140.422727 
L 410.607734 140.422727 
L 410.711344 28.108678 
L 410.832224 140.422727 
L 410.849492 140.422727 
L 410.884029 16.877273 
L 410.970371 28.108678 
L 410.98764 28.108678 
L 411.108519 140.422727 
L 411.125787 16.877273 
L 411.229398 28.108678 
L 411.246666 28.108678 
L 411.367545 140.422727 
L 411.402082 140.422727 
L 411.522961 28.108678 
L 411.592035 28.108678 
L 411.661109 84.265702 
L 411.695646 28.108678 
L 411.712914 28.108678 
L 411.747451 140.422727 
L 411.816525 28.108678 
L 411.920135 28.108678 
L 412.041014 140.422727 
L 415.788266 140.422727 
L 415.909145 28.108678 
L 416.081829 28.108678 
L 416.116366 140.422727 
L 416.18544 28.108678 
L 416.219976 28.108678 
L 416.323587 140.422727 
L 416.427198 28.108678 
L 416.461735 140.422727 
L 416.530808 28.108678 
L 416.565345 28.108678 
L 416.634419 140.422727 
L 416.668956 28.108678 
L 416.755298 28.108678 
L 416.789835 140.422727 
L 416.858909 28.108678 
L 416.893446 28.108678 
L 417.014325 140.422727 
L 417.117935 28.108678 
L 417.152472 140.422727 
L 417.221546 28.108678 
L 417.307888 28.108678 
L 417.342425 140.422727 
L 417.411499 28.108678 
L 417.584183 28.108678 
L 417.705062 140.422727 
L 417.739599 140.422727 
L 417.860478 28.108678 
L 418.015894 28.108678 
L 418.050431 140.422727 
L 418.119505 28.108678 
L 418.136773 28.108678 
L 418.17131 140.422727 
L 418.240384 28.108678 
L 418.326726 28.108678 
L 418.447605 140.422727 
L 418.482142 140.422727 
L 418.603021 28.108678 
L 418.741169 28.108678 
L 418.775705 140.422727 
L 418.844779 28.108678 
L 418.965658 28.108678 
L 419.086537 140.422727 
L 419.17288 140.422727 
L 419.259222 28.108678 
L 419.27649 140.422727 
L 419.293759 140.422727 
L 419.414638 28.108678 
L 419.449175 140.422727 
L 419.518248 28.108678 
L 419.587322 28.108678 
L 419.708201 140.422727 
L 419.760006 140.422727 
L 419.880886 28.108678 
L 419.915422 28.108678 
L 420.036301 140.422727 
L 420.05357 140.422727 
L 420.174449 28.108678 
L 420.347133 28.108678 
L 420.38167 140.422727 
L 420.450744 28.108678 
L 420.468012 28.108678 
L 420.502549 140.422727 
L 420.571623 84.265702 
L 420.60616 84.265702 
L 420.623428 140.422727 
L 420.657965 28.108678 
L 420.692502 28.108678 
L 420.916992 28.108678 
L 421.037871 140.422727 
L 421.089676 140.422727 
L 421.210555 28.108678 
L 421.279629 28.108678 
L 421.314166 140.422727 
L 421.38324 28.108678 
L 421.504119 28.108678 
L 421.642266 140.422727 
L 421.676803 140.422727 
L 421.745877 28.108678 
L 421.780414 140.422727 
L 421.849488 140.422727 
L 421.970367 28.108678 
L 422.022172 28.108678 
L 422.056709 140.422727 
L 422.125783 28.108678 
L 422.281199 28.108678 
L 422.315735 140.422727 
L 422.384809 28.108678 
L 422.402078 28.108678 
L 422.505688 140.422727 
L 422.626567 28.108678 
L 422.730178 28.108678 
L 422.764715 140.422727 
L 422.833789 28.108678 
L 422.902862 28.108678 
L 422.937399 140.422727 
L 422.989205 28.108678 
" style="fill:none;stroke:#008000;stroke-linecap:square;stroke-width:1.5;"/>
   </g>
   <g id="patch_3">
    <path d="M 50.14375 146.6 
L 50.14375 10.7 
" style="fill:none;stroke:#000000;stroke-linecap:square;stroke-linejoin:miter;stroke-width:0.8;"/>
   </g>
   <g id="patch_4">
    <path d="M 440.74375 146.6 
L 440.74375 10.7 
" style="fill:none;stroke:#000000;stroke-linecap:square;stroke-linejoin:miter;stroke-width:0.8;"/>
   </g>
   <g id="patch_5">
    <path d="M 50.14375 146.6 
L 440.74375 146.6 
" style="fill:none;stroke:#000000;stroke-linecap:square;stroke-linejoin:miter;stroke-width:0.8;"/>
   </g>
   <g id="patch_6">
    <path d="M 50.14375 10.7 
L 440.74375 10.7 
" style="fill:none;stroke:#000000;stroke-linecap:square;stroke-linejoin:miter;stroke-width:0.8;"/>
   </g>
  </g>
 </g>
 <defs>
  <clipPath id="pb865b93e9a">
   <rect height="135.9" width="390.6" x="50.14375" y="10.7"/>
  </clipPath>
 </defs>
</svg>
