<?xml version="1.0" encoding="utf-8" standalone="no"?>
<!DOCTYPE svg PUBLIC "-//W3C//DTD SVG 1.1//EN"
  "http://www.w3.org/Graphics/SVG/1.1/DTD/svg11.dtd">
<!-- Created with matplotlib (http://matplotlib.org/) -->
<svg height="184pt" version="1.1" viewBox="0 0 448 184" width="448pt" xmlns="http://www.w3.org/2000/svg" xmlns:xlink="http://www.w3.org/1999/xlink">
 <defs>
  <style type="text/css">
*{stroke-linecap:butt;stroke-linejoin:round;}
  </style>
 </defs>
 <g id="figure_1">
  <g id="patch_1">
   <path d="M 0 184.15625 
L 448.198657 184.15625 
L 448.198657 -0 
L 0 -0 
z
" style="fill:#ffffff;"/>
  </g>
  <g id="axes_1">
   <g id="patch_2">
    <path d="M 40.603125 146.6 
L 431.203125 146.6 
L 431.203125 10.7 
L 40.603125 10.7 
z
" style="fill:#ffffff;"/>
   </g>
   <g id="matplotlib.axis_1">
    <g id="xtick_1">
     <g id="line2d_1">
      <defs>
       <path d="M 0 0 
L 0 3.5 
" id="m19a472bbbb" style="stroke:#000000;stroke-width:0.8;"/>
      </defs>
      <g>
       <use style="stroke:#000000;stroke-width:0.8;" x="58.35767" xlink:href="#m19a472bbbb" y="146.6"/>
      </g>
     </g>
     <g id="text_1">
      <!-- 0 -->
      <defs>
       <path d="M 31.78125 66.40625 
Q 24.171875 66.40625 20.328125 58.90625 
Q 16.5 51.421875 16.5 36.375 
Q 16.5 21.390625 20.328125 13.890625 
Q 24.171875 6.390625 31.78125 6.390625 
Q 39.453125 6.390625 43.28125 13.890625 
Q 47.125 21.390625 47.125 36.375 
Q 47.125 51.421875 43.28125 58.90625 
Q 39.453125 66.40625 31.78125 66.40625 
z
M 31.78125 74.21875 
Q 44.046875 74.21875 50.515625 64.515625 
Q 56.984375 54.828125 56.984375 36.375 
Q 56.984375 17.96875 50.515625 8.265625 
Q 44.046875 -1.421875 31.78125 -1.421875 
Q 19.53125 -1.421875 13.0625 8.265625 
Q 6.59375 17.96875 6.59375 36.375 
Q 6.59375 54.828125 13.0625 64.515625 
Q 19.53125 74.21875 31.78125 74.21875 
z
" id="DejaVuSans-30"/>
      </defs>
      <g transform="translate(55.17642 161.198437)scale(0.1 -0.1)">
       <use xlink:href="#DejaVuSans-30"/>
      </g>
     </g>
    </g>
    <g id="xtick_2">
     <g id="line2d_2">
      <g>
       <use style="stroke:#000000;stroke-width:0.8;" x="119.480127" xlink:href="#m19a472bbbb" y="146.6"/>
      </g>
     </g>
     <g id="text_2">
      <!-- 2000 -->
      <defs>
       <path d="M 19.1875 8.296875 
L 53.609375 8.296875 
L 53.609375 0 
L 7.328125 0 
L 7.328125 8.296875 
Q 12.9375 14.109375 22.625 23.890625 
Q 32.328125 33.6875 34.8125 36.53125 
Q 39.546875 41.84375 41.421875 45.53125 
Q 43.3125 49.21875 43.3125 52.78125 
Q 43.3125 58.59375 39.234375 62.25 
Q 35.15625 65.921875 28.609375 65.921875 
Q 23.96875 65.921875 18.8125 64.3125 
Q 13.671875 62.703125 7.8125 59.421875 
L 7.8125 69.390625 
Q 13.765625 71.78125 18.9375 73 
Q 24.125 74.21875 28.421875 74.21875 
Q 39.75 74.21875 46.484375 68.546875 
Q 53.21875 62.890625 53.21875 53.421875 
Q 53.21875 48.921875 51.53125 44.890625 
Q 49.859375 40.875 45.40625 35.40625 
Q 44.1875 33.984375 37.640625 27.21875 
Q 31.109375 20.453125 19.1875 8.296875 
z
" id="DejaVuSans-32"/>
      </defs>
      <g transform="translate(106.755127 161.198437)scale(0.1 -0.1)">
       <use xlink:href="#DejaVuSans-32"/>
       <use x="63.623047" xlink:href="#DejaVuSans-30"/>
       <use x="127.246094" xlink:href="#DejaVuSans-30"/>
       <use x="190.869141" xlink:href="#DejaVuSans-30"/>
      </g>
     </g>
    </g>
    <g id="xtick_3">
     <g id="line2d_3">
      <g>
       <use style="stroke:#000000;stroke-width:0.8;" x="180.602583" xlink:href="#m19a472bbbb" y="146.6"/>
      </g>
     </g>
     <g id="text_3">
      <!-- 4000 -->
      <defs>
       <path d="M 37.796875 64.3125 
L 12.890625 25.390625 
L 37.796875 25.390625 
z
M 35.203125 72.90625 
L 47.609375 72.90625 
L 47.609375 25.390625 
L 58.015625 25.390625 
L 58.015625 17.1875 
L 47.609375 17.1875 
L 47.609375 0 
L 37.796875 0 
L 37.796875 17.1875 
L 4.890625 17.1875 
L 4.890625 26.703125 
z
" id="DejaVuSans-34"/>
      </defs>
      <g transform="translate(167.877583 161.198437)scale(0.1 -0.1)">
       <use xlink:href="#DejaVuSans-34"/>
       <use x="63.623047" xlink:href="#DejaVuSans-30"/>
       <use x="127.246094" xlink:href="#DejaVuSans-30"/>
       <use x="190.869141" xlink:href="#DejaVuSans-30"/>
      </g>
     </g>
    </g>
    <g id="xtick_4">
     <g id="line2d_4">
      <g>
       <use style="stroke:#000000;stroke-width:0.8;" x="241.725039" xlink:href="#m19a472bbbb" y="146.6"/>
      </g>
     </g>
     <g id="text_4">
      <!-- 6000 -->
      <defs>
       <path d="M 33.015625 40.375 
Q 26.375 40.375 22.484375 35.828125 
Q 18.609375 31.296875 18.609375 23.390625 
Q 18.609375 15.53125 22.484375 10.953125 
Q 26.375 6.390625 33.015625 6.390625 
Q 39.65625 6.390625 43.53125 10.953125 
Q 47.40625 15.53125 47.40625 23.390625 
Q 47.40625 31.296875 43.53125 35.828125 
Q 39.65625 40.375 33.015625 40.375 
z
M 52.59375 71.296875 
L 52.59375 62.3125 
Q 48.875 64.0625 45.09375 64.984375 
Q 41.3125 65.921875 37.59375 65.921875 
Q 27.828125 65.921875 22.671875 59.328125 
Q 17.53125 52.734375 16.796875 39.40625 
Q 19.671875 43.65625 24.015625 45.921875 
Q 28.375 48.1875 33.59375 48.1875 
Q 44.578125 48.1875 50.953125 41.515625 
Q 57.328125 34.859375 57.328125 23.390625 
Q 57.328125 12.15625 50.6875 5.359375 
Q 44.046875 -1.421875 33.015625 -1.421875 
Q 20.359375 -1.421875 13.671875 8.265625 
Q 6.984375 17.96875 6.984375 36.375 
Q 6.984375 53.65625 15.1875 63.9375 
Q 23.390625 74.21875 37.203125 74.21875 
Q 40.921875 74.21875 44.703125 73.484375 
Q 48.484375 72.75 52.59375 71.296875 
z
" id="DejaVuSans-36"/>
      </defs>
      <g transform="translate(229.000039 161.198437)scale(0.1 -0.1)">
       <use xlink:href="#DejaVuSans-36"/>
       <use x="63.623047" xlink:href="#DejaVuSans-30"/>
       <use x="127.246094" xlink:href="#DejaVuSans-30"/>
       <use x="190.869141" xlink:href="#DejaVuSans-30"/>
      </g>
     </g>
    </g>
    <g id="xtick_5">
     <g id="line2d_5">
      <g>
       <use style="stroke:#000000;stroke-width:0.8;" x="302.847495" xlink:href="#m19a472bbbb" y="146.6"/>
      </g>
     </g>
     <g id="text_5">
      <!-- 8000 -->
      <defs>
       <path d="M 31.78125 34.625 
Q 24.75 34.625 20.71875 30.859375 
Q 16.703125 27.09375 16.703125 20.515625 
Q 16.703125 13.921875 20.71875 10.15625 
Q 24.75 6.390625 31.78125 6.390625 
Q 38.8125 6.390625 42.859375 10.171875 
Q 46.921875 13.96875 46.921875 20.515625 
Q 46.921875 27.09375 42.890625 30.859375 
Q 38.875 34.625 31.78125 34.625 
z
M 21.921875 38.8125 
Q 15.578125 40.375 12.03125 44.71875 
Q 8.5 49.078125 8.5 55.328125 
Q 8.5 64.0625 14.71875 69.140625 
Q 20.953125 74.21875 31.78125 74.21875 
Q 42.671875 74.21875 48.875 69.140625 
Q 55.078125 64.0625 55.078125 55.328125 
Q 55.078125 49.078125 51.53125 44.71875 
Q 48 40.375 41.703125 38.8125 
Q 48.828125 37.15625 52.796875 32.3125 
Q 56.78125 27.484375 56.78125 20.515625 
Q 56.78125 9.90625 50.3125 4.234375 
Q 43.84375 -1.421875 31.78125 -1.421875 
Q 19.734375 -1.421875 13.25 4.234375 
Q 6.78125 9.90625 6.78125 20.515625 
Q 6.78125 27.484375 10.78125 32.3125 
Q 14.796875 37.15625 21.921875 38.8125 
z
M 18.3125 54.390625 
Q 18.3125 48.734375 21.84375 45.5625 
Q 25.390625 42.390625 31.78125 42.390625 
Q 38.140625 42.390625 41.71875 45.5625 
Q 45.3125 48.734375 45.3125 54.390625 
Q 45.3125 60.0625 41.71875 63.234375 
Q 38.140625 66.40625 31.78125 66.40625 
Q 25.390625 66.40625 21.84375 63.234375 
Q 18.3125 60.0625 18.3125 54.390625 
z
" id="DejaVuSans-38"/>
      </defs>
      <g transform="translate(290.122495 161.198437)scale(0.1 -0.1)">
       <use xlink:href="#DejaVuSans-38"/>
       <use x="63.623047" xlink:href="#DejaVuSans-30"/>
       <use x="127.246094" xlink:href="#DejaVuSans-30"/>
       <use x="190.869141" xlink:href="#DejaVuSans-30"/>
      </g>
     </g>
    </g>
    <g id="xtick_6">
     <g id="line2d_6">
      <g>
       <use style="stroke:#000000;stroke-width:0.8;" x="363.969951" xlink:href="#m19a472bbbb" y="146.6"/>
      </g>
     </g>
     <g id="text_6">
      <!-- 10000 -->
      <defs>
       <path d="M 12.40625 8.296875 
L 28.515625 8.296875 
L 28.515625 63.921875 
L 10.984375 60.40625 
L 10.984375 69.390625 
L 28.421875 72.90625 
L 38.28125 72.90625 
L 38.28125 8.296875 
L 54.390625 8.296875 
L 54.390625 0 
L 12.40625 0 
z
" id="DejaVuSans-31"/>
      </defs>
      <g transform="translate(348.063701 161.198437)scale(0.1 -0.1)">
       <use xlink:href="#DejaVuSans-31"/>
       <use x="63.623047" xlink:href="#DejaVuSans-30"/>
       <use x="127.246094" xlink:href="#DejaVuSans-30"/>
       <use x="190.869141" xlink:href="#DejaVuSans-30"/>
       <use x="254.492188" xlink:href="#DejaVuSans-30"/>
      </g>
     </g>
    </g>
    <g id="xtick_7">
     <g id="line2d_7">
      <g>
       <use style="stroke:#000000;stroke-width:0.8;" x="425.092407" xlink:href="#m19a472bbbb" y="146.6"/>
      </g>
     </g>
     <g id="text_7">
      <!-- 12000 -->
      <g transform="translate(409.186157 161.198437)scale(0.1 -0.1)">
       <use xlink:href="#DejaVuSans-31"/>
       <use x="63.623047" xlink:href="#DejaVuSans-32"/>
       <use x="127.246094" xlink:href="#DejaVuSans-30"/>
       <use x="190.869141" xlink:href="#DejaVuSans-30"/>
       <use x="254.492188" xlink:href="#DejaVuSans-30"/>
      </g>
     </g>
    </g>
    <g id="text_8">
     <!-- Packets for this host -->
     <defs>
      <path d="M 19.671875 64.796875 
L 19.671875 37.40625 
L 32.078125 37.40625 
Q 38.96875 37.40625 42.71875 40.96875 
Q 46.484375 44.53125 46.484375 51.125 
Q 46.484375 57.671875 42.71875 61.234375 
Q 38.96875 64.796875 32.078125 64.796875 
z
M 9.8125 72.90625 
L 32.078125 72.90625 
Q 44.34375 72.90625 50.609375 67.359375 
Q 56.890625 61.8125 56.890625 51.125 
Q 56.890625 40.328125 50.609375 34.8125 
Q 44.34375 29.296875 32.078125 29.296875 
L 19.671875 29.296875 
L 19.671875 0 
L 9.8125 0 
z
" id="DejaVuSans-50"/>
      <path d="M 34.28125 27.484375 
Q 23.390625 27.484375 19.1875 25 
Q 14.984375 22.515625 14.984375 16.5 
Q 14.984375 11.71875 18.140625 8.90625 
Q 21.296875 6.109375 26.703125 6.109375 
Q 34.1875 6.109375 38.703125 11.40625 
Q 43.21875 16.703125 43.21875 25.484375 
L 43.21875 27.484375 
z
M 52.203125 31.203125 
L 52.203125 0 
L 43.21875 0 
L 43.21875 8.296875 
Q 40.140625 3.328125 35.546875 0.953125 
Q 30.953125 -1.421875 24.3125 -1.421875 
Q 15.921875 -1.421875 10.953125 3.296875 
Q 6 8.015625 6 15.921875 
Q 6 25.140625 12.171875 29.828125 
Q 18.359375 34.515625 30.609375 34.515625 
L 43.21875 34.515625 
L 43.21875 35.40625 
Q 43.21875 41.609375 39.140625 45 
Q 35.0625 48.390625 27.6875 48.390625 
Q 23 48.390625 18.546875 47.265625 
Q 14.109375 46.140625 10.015625 43.890625 
L 10.015625 52.203125 
Q 14.9375 54.109375 19.578125 55.046875 
Q 24.21875 56 28.609375 56 
Q 40.484375 56 46.34375 49.84375 
Q 52.203125 43.703125 52.203125 31.203125 
z
" id="DejaVuSans-61"/>
      <path d="M 48.78125 52.59375 
L 48.78125 44.1875 
Q 44.96875 46.296875 41.140625 47.34375 
Q 37.3125 48.390625 33.40625 48.390625 
Q 24.65625 48.390625 19.8125 42.84375 
Q 14.984375 37.3125 14.984375 27.296875 
Q 14.984375 17.28125 19.8125 11.734375 
Q 24.65625 6.203125 33.40625 6.203125 
Q 37.3125 6.203125 41.140625 7.25 
Q 44.96875 8.296875 48.78125 10.40625 
L 48.78125 2.09375 
Q 45.015625 0.34375 40.984375 -0.53125 
Q 36.96875 -1.421875 32.421875 -1.421875 
Q 20.0625 -1.421875 12.78125 6.34375 
Q 5.515625 14.109375 5.515625 27.296875 
Q 5.515625 40.671875 12.859375 48.328125 
Q 20.21875 56 33.015625 56 
Q 37.15625 56 41.109375 55.140625 
Q 45.0625 54.296875 48.78125 52.59375 
z
" id="DejaVuSans-63"/>
      <path d="M 9.078125 75.984375 
L 18.109375 75.984375 
L 18.109375 31.109375 
L 44.921875 54.6875 
L 56.390625 54.6875 
L 27.390625 29.109375 
L 57.625 0 
L 45.90625 0 
L 18.109375 26.703125 
L 18.109375 0 
L 9.078125 0 
z
" id="DejaVuSans-6b"/>
      <path d="M 56.203125 29.59375 
L 56.203125 25.203125 
L 14.890625 25.203125 
Q 15.484375 15.921875 20.484375 11.0625 
Q 25.484375 6.203125 34.421875 6.203125 
Q 39.59375 6.203125 44.453125 7.46875 
Q 49.3125 8.734375 54.109375 11.28125 
L 54.109375 2.78125 
Q 49.265625 0.734375 44.1875 -0.34375 
Q 39.109375 -1.421875 33.890625 -1.421875 
Q 20.796875 -1.421875 13.15625 6.1875 
Q 5.515625 13.8125 5.515625 26.8125 
Q 5.515625 40.234375 12.765625 48.109375 
Q 20.015625 56 32.328125 56 
Q 43.359375 56 49.78125 48.890625 
Q 56.203125 41.796875 56.203125 29.59375 
z
M 47.21875 32.234375 
Q 47.125 39.59375 43.09375 43.984375 
Q 39.0625 48.390625 32.421875 48.390625 
Q 24.90625 48.390625 20.390625 44.140625 
Q 15.875 39.890625 15.1875 32.171875 
z
" id="DejaVuSans-65"/>
      <path d="M 18.3125 70.21875 
L 18.3125 54.6875 
L 36.8125 54.6875 
L 36.8125 47.703125 
L 18.3125 47.703125 
L 18.3125 18.015625 
Q 18.3125 11.328125 20.140625 9.421875 
Q 21.96875 7.515625 27.59375 7.515625 
L 36.8125 7.515625 
L 36.8125 0 
L 27.59375 0 
Q 17.1875 0 13.234375 3.875 
Q 9.28125 7.765625 9.28125 18.015625 
L 9.28125 47.703125 
L 2.6875 47.703125 
L 2.6875 54.6875 
L 9.28125 54.6875 
L 9.28125 70.21875 
z
" id="DejaVuSans-74"/>
      <path d="M 44.28125 53.078125 
L 44.28125 44.578125 
Q 40.484375 46.53125 36.375 47.5 
Q 32.28125 48.484375 27.875 48.484375 
Q 21.1875 48.484375 17.84375 46.4375 
Q 14.5 44.390625 14.5 40.28125 
Q 14.5 37.15625 16.890625 35.375 
Q 19.28125 33.59375 26.515625 31.984375 
L 29.59375 31.296875 
Q 39.15625 29.25 43.1875 25.515625 
Q 47.21875 21.78125 47.21875 15.09375 
Q 47.21875 7.46875 41.1875 3.015625 
Q 35.15625 -1.421875 24.609375 -1.421875 
Q 20.21875 -1.421875 15.453125 -0.5625 
Q 10.6875 0.296875 5.421875 2 
L 5.421875 11.28125 
Q 10.40625 8.6875 15.234375 7.390625 
Q 20.0625 6.109375 24.8125 6.109375 
Q 31.15625 6.109375 34.5625 8.28125 
Q 37.984375 10.453125 37.984375 14.40625 
Q 37.984375 18.0625 35.515625 20.015625 
Q 33.0625 21.96875 24.703125 23.78125 
L 21.578125 24.515625 
Q 13.234375 26.265625 9.515625 29.90625 
Q 5.8125 33.546875 5.8125 39.890625 
Q 5.8125 47.609375 11.28125 51.796875 
Q 16.75 56 26.8125 56 
Q 31.78125 56 36.171875 55.265625 
Q 40.578125 54.546875 44.28125 53.078125 
z
" id="DejaVuSans-73"/>
      <path id="DejaVuSans-20"/>
      <path d="M 37.109375 75.984375 
L 37.109375 68.5 
L 28.515625 68.5 
Q 23.6875 68.5 21.796875 66.546875 
Q 19.921875 64.59375 19.921875 59.515625 
L 19.921875 54.6875 
L 34.71875 54.6875 
L 34.71875 47.703125 
L 19.921875 47.703125 
L 19.921875 0 
L 10.890625 0 
L 10.890625 47.703125 
L 2.296875 47.703125 
L 2.296875 54.6875 
L 10.890625 54.6875 
L 10.890625 58.5 
Q 10.890625 67.625 15.140625 71.796875 
Q 19.390625 75.984375 28.609375 75.984375 
z
" id="DejaVuSans-66"/>
      <path d="M 30.609375 48.390625 
Q 23.390625 48.390625 19.1875 42.75 
Q 14.984375 37.109375 14.984375 27.296875 
Q 14.984375 17.484375 19.15625 11.84375 
Q 23.34375 6.203125 30.609375 6.203125 
Q 37.796875 6.203125 41.984375 11.859375 
Q 46.1875 17.53125 46.1875 27.296875 
Q 46.1875 37.015625 41.984375 42.703125 
Q 37.796875 48.390625 30.609375 48.390625 
z
M 30.609375 56 
Q 42.328125 56 49.015625 48.375 
Q 55.71875 40.765625 55.71875 27.296875 
Q 55.71875 13.875 49.015625 6.21875 
Q 42.328125 -1.421875 30.609375 -1.421875 
Q 18.84375 -1.421875 12.171875 6.21875 
Q 5.515625 13.875 5.515625 27.296875 
Q 5.515625 40.765625 12.171875 48.375 
Q 18.84375 56 30.609375 56 
z
" id="DejaVuSans-6f"/>
      <path d="M 41.109375 46.296875 
Q 39.59375 47.171875 37.8125 47.578125 
Q 36.03125 48 33.890625 48 
Q 26.265625 48 22.1875 43.046875 
Q 18.109375 38.09375 18.109375 28.8125 
L 18.109375 0 
L 9.078125 0 
L 9.078125 54.6875 
L 18.109375 54.6875 
L 18.109375 46.1875 
Q 20.953125 51.171875 25.484375 53.578125 
Q 30.03125 56 36.53125 56 
Q 37.453125 56 38.578125 55.875 
Q 39.703125 55.765625 41.0625 55.515625 
z
" id="DejaVuSans-72"/>
      <path d="M 54.890625 33.015625 
L 54.890625 0 
L 45.90625 0 
L 45.90625 32.71875 
Q 45.90625 40.484375 42.875 44.328125 
Q 39.84375 48.1875 33.796875 48.1875 
Q 26.515625 48.1875 22.3125 43.546875 
Q 18.109375 38.921875 18.109375 30.90625 
L 18.109375 0 
L 9.078125 0 
L 9.078125 75.984375 
L 18.109375 75.984375 
L 18.109375 46.1875 
Q 21.34375 51.125 25.703125 53.5625 
Q 30.078125 56 35.796875 56 
Q 45.21875 56 50.046875 50.171875 
Q 54.890625 44.34375 54.890625 33.015625 
z
" id="DejaVuSans-68"/>
      <path d="M 9.421875 54.6875 
L 18.40625 54.6875 
L 18.40625 0 
L 9.421875 0 
z
M 9.421875 75.984375 
L 18.40625 75.984375 
L 18.40625 64.59375 
L 9.421875 64.59375 
z
" id="DejaVuSans-69"/>
     </defs>
     <g transform="translate(184.985938 174.876562)scale(0.1 -0.1)">
      <use xlink:href="#DejaVuSans-50"/>
      <use x="60.240234" xlink:href="#DejaVuSans-61"/>
      <use x="121.519531" xlink:href="#DejaVuSans-63"/>
      <use x="176.5" xlink:href="#DejaVuSans-6b"/>
      <use x="234.363281" xlink:href="#DejaVuSans-65"/>
      <use x="295.886719" xlink:href="#DejaVuSans-74"/>
      <use x="335.095703" xlink:href="#DejaVuSans-73"/>
      <use x="387.195312" xlink:href="#DejaVuSans-20"/>
      <use x="418.982422" xlink:href="#DejaVuSans-66"/>
      <use x="454.1875" xlink:href="#DejaVuSans-6f"/>
      <use x="515.369141" xlink:href="#DejaVuSans-72"/>
      <use x="556.482422" xlink:href="#DejaVuSans-20"/>
      <use x="588.269531" xlink:href="#DejaVuSans-74"/>
      <use x="627.478516" xlink:href="#DejaVuSans-68"/>
      <use x="690.857422" xlink:href="#DejaVuSans-69"/>
      <use x="718.640625" xlink:href="#DejaVuSans-73"/>
      <use x="770.740234" xlink:href="#DejaVuSans-20"/>
      <use x="802.527344" xlink:href="#DejaVuSans-68"/>
      <use x="865.90625" xlink:href="#DejaVuSans-6f"/>
      <use x="927.087891" xlink:href="#DejaVuSans-73"/>
      <use x="979.1875" xlink:href="#DejaVuSans-74"/>
     </g>
    </g>
   </g>
   <g id="matplotlib.axis_2">
    <g id="ytick_1">
     <g id="line2d_8">
      <defs>
       <path d="M 0 0 
L -3.5 0 
" id="mf279bb4d76" style="stroke:#000000;stroke-width:0.8;"/>
      </defs>
      <g>
       <use style="stroke:#000000;stroke-width:0.8;" x="40.603125" xlink:href="#mf279bb4d76" y="140.422727"/>
      </g>
     </g>
     <g id="text_9">
      <!-- 0 -->
      <g transform="translate(27.240625 144.221946)scale(0.1 -0.1)">
       <use xlink:href="#DejaVuSans-30"/>
      </g>
     </g>
    </g>
    <g id="ytick_2">
     <g id="line2d_9">
      <g>
       <use style="stroke:#000000;stroke-width:0.8;" x="40.603125" xlink:href="#mf279bb4d76" y="115.713636"/>
      </g>
     </g>
     <g id="text_10">
      <!-- 2 -->
      <g transform="translate(27.240625 119.512855)scale(0.1 -0.1)">
       <use xlink:href="#DejaVuSans-32"/>
      </g>
     </g>
    </g>
    <g id="ytick_3">
     <g id="line2d_10">
      <g>
       <use style="stroke:#000000;stroke-width:0.8;" x="40.603125" xlink:href="#mf279bb4d76" y="91.004545"/>
      </g>
     </g>
     <g id="text_11">
      <!-- 4 -->
      <g transform="translate(27.240625 94.803764)scale(0.1 -0.1)">
       <use xlink:href="#DejaVuSans-34"/>
      </g>
     </g>
    </g>
    <g id="ytick_4">
     <g id="line2d_11">
      <g>
       <use style="stroke:#000000;stroke-width:0.8;" x="40.603125" xlink:href="#mf279bb4d76" y="66.295455"/>
      </g>
     </g>
     <g id="text_12">
      <!-- 6 -->
      <g transform="translate(27.240625 70.094673)scale(0.1 -0.1)">
       <use xlink:href="#DejaVuSans-36"/>
      </g>
     </g>
    </g>
    <g id="ytick_5">
     <g id="line2d_12">
      <g>
       <use style="stroke:#000000;stroke-width:0.8;" x="40.603125" xlink:href="#mf279bb4d76" y="41.586364"/>
      </g>
     </g>
     <g id="text_13">
      <!-- 8 -->
      <g transform="translate(27.240625 45.385582)scale(0.1 -0.1)">
       <use xlink:href="#DejaVuSans-38"/>
      </g>
     </g>
    </g>
    <g id="ytick_6">
     <g id="line2d_13">
      <g>
       <use style="stroke:#000000;stroke-width:0.8;" x="40.603125" xlink:href="#mf279bb4d76" y="16.877273"/>
      </g>
     </g>
     <g id="text_14">
      <!-- 10 -->
      <g transform="translate(20.878125 20.676491)scale(0.1 -0.1)">
       <use xlink:href="#DejaVuSans-31"/>
       <use x="63.623047" xlink:href="#DejaVuSans-30"/>
      </g>
     </g>
    </g>
    <g id="text_15">
     <!-- Flow encoding (discretized) -->
     <defs>
      <path d="M 9.8125 72.90625 
L 51.703125 72.90625 
L 51.703125 64.59375 
L 19.671875 64.59375 
L 19.671875 43.109375 
L 48.578125 43.109375 
L 48.578125 34.8125 
L 19.671875 34.8125 
L 19.671875 0 
L 9.8125 0 
z
" id="DejaVuSans-46"/>
      <path d="M 9.421875 75.984375 
L 18.40625 75.984375 
L 18.40625 0 
L 9.421875 0 
z
" id="DejaVuSans-6c"/>
      <path d="M 4.203125 54.6875 
L 13.1875 54.6875 
L 24.421875 12.015625 
L 35.59375 54.6875 
L 46.1875 54.6875 
L 57.421875 12.015625 
L 68.609375 54.6875 
L 77.59375 54.6875 
L 63.28125 0 
L 52.6875 0 
L 40.921875 44.828125 
L 29.109375 0 
L 18.5 0 
z
" id="DejaVuSans-77"/>
      <path d="M 54.890625 33.015625 
L 54.890625 0 
L 45.90625 0 
L 45.90625 32.71875 
Q 45.90625 40.484375 42.875 44.328125 
Q 39.84375 48.1875 33.796875 48.1875 
Q 26.515625 48.1875 22.3125 43.546875 
Q 18.109375 38.921875 18.109375 30.90625 
L 18.109375 0 
L 9.078125 0 
L 9.078125 54.6875 
L 18.109375 54.6875 
L 18.109375 46.1875 
Q 21.34375 51.125 25.703125 53.5625 
Q 30.078125 56 35.796875 56 
Q 45.21875 56 50.046875 50.171875 
Q 54.890625 44.34375 54.890625 33.015625 
z
" id="DejaVuSans-6e"/>
      <path d="M 45.40625 46.390625 
L 45.40625 75.984375 
L 54.390625 75.984375 
L 54.390625 0 
L 45.40625 0 
L 45.40625 8.203125 
Q 42.578125 3.328125 38.25 0.953125 
Q 33.9375 -1.421875 27.875 -1.421875 
Q 17.96875 -1.421875 11.734375 6.484375 
Q 5.515625 14.40625 5.515625 27.296875 
Q 5.515625 40.1875 11.734375 48.09375 
Q 17.96875 56 27.875 56 
Q 33.9375 56 38.25 53.625 
Q 42.578125 51.265625 45.40625 46.390625 
z
M 14.796875 27.296875 
Q 14.796875 17.390625 18.875 11.75 
Q 22.953125 6.109375 30.078125 6.109375 
Q 37.203125 6.109375 41.296875 11.75 
Q 45.40625 17.390625 45.40625 27.296875 
Q 45.40625 37.203125 41.296875 42.84375 
Q 37.203125 48.484375 30.078125 48.484375 
Q 22.953125 48.484375 18.875 42.84375 
Q 14.796875 37.203125 14.796875 27.296875 
z
" id="DejaVuSans-64"/>
      <path d="M 45.40625 27.984375 
Q 45.40625 37.75 41.375 43.109375 
Q 37.359375 48.484375 30.078125 48.484375 
Q 22.859375 48.484375 18.828125 43.109375 
Q 14.796875 37.75 14.796875 27.984375 
Q 14.796875 18.265625 18.828125 12.890625 
Q 22.859375 7.515625 30.078125 7.515625 
Q 37.359375 7.515625 41.375 12.890625 
Q 45.40625 18.265625 45.40625 27.984375 
z
M 54.390625 6.78125 
Q 54.390625 -7.171875 48.1875 -13.984375 
Q 42 -20.796875 29.203125 -20.796875 
Q 24.46875 -20.796875 20.265625 -20.09375 
Q 16.0625 -19.390625 12.109375 -17.921875 
L 12.109375 -9.1875 
Q 16.0625 -11.328125 19.921875 -12.34375 
Q 23.78125 -13.375 27.78125 -13.375 
Q 36.625 -13.375 41.015625 -8.765625 
Q 45.40625 -4.15625 45.40625 5.171875 
L 45.40625 9.625 
Q 42.625 4.78125 38.28125 2.390625 
Q 33.9375 0 27.875 0 
Q 17.828125 0 11.671875 7.65625 
Q 5.515625 15.328125 5.515625 27.984375 
Q 5.515625 40.671875 11.671875 48.328125 
Q 17.828125 56 27.875 56 
Q 33.9375 56 38.28125 53.609375 
Q 42.625 51.21875 45.40625 46.390625 
L 45.40625 54.6875 
L 54.390625 54.6875 
z
" id="DejaVuSans-67"/>
      <path d="M 31 75.875 
Q 24.46875 64.65625 21.28125 53.65625 
Q 18.109375 42.671875 18.109375 31.390625 
Q 18.109375 20.125 21.3125 9.0625 
Q 24.515625 -2 31 -13.1875 
L 23.1875 -13.1875 
Q 15.875 -1.703125 12.234375 9.375 
Q 8.59375 20.453125 8.59375 31.390625 
Q 8.59375 42.28125 12.203125 53.3125 
Q 15.828125 64.359375 23.1875 75.875 
z
" id="DejaVuSans-28"/>
      <path d="M 5.515625 54.6875 
L 48.1875 54.6875 
L 48.1875 46.484375 
L 14.40625 7.171875 
L 48.1875 7.171875 
L 48.1875 0 
L 4.296875 0 
L 4.296875 8.203125 
L 38.09375 47.515625 
L 5.515625 47.515625 
z
" id="DejaVuSans-7a"/>
      <path d="M 8.015625 75.875 
L 15.828125 75.875 
Q 23.140625 64.359375 26.78125 53.3125 
Q 30.421875 42.28125 30.421875 31.390625 
Q 30.421875 20.453125 26.78125 9.375 
Q 23.140625 -1.703125 15.828125 -13.1875 
L 8.015625 -13.1875 
Q 14.5 -2 17.703125 9.0625 
Q 20.90625 20.125 20.90625 31.390625 
Q 20.90625 42.671875 17.703125 53.65625 
Q 14.5 64.65625 8.015625 75.875 
z
" id="DejaVuSans-29"/>
     </defs>
     <g transform="translate(14.798438 147.375)rotate(-90)scale(0.1 -0.1)">
      <use xlink:href="#DejaVuSans-46"/>
      <use x="57.519531" xlink:href="#DejaVuSans-6c"/>
      <use x="85.302734" xlink:href="#DejaVuSans-6f"/>
      <use x="146.484375" xlink:href="#DejaVuSans-77"/>
      <use x="228.271484" xlink:href="#DejaVuSans-20"/>
      <use x="260.058594" xlink:href="#DejaVuSans-65"/>
      <use x="321.582031" xlink:href="#DejaVuSans-6e"/>
      <use x="384.960938" xlink:href="#DejaVuSans-63"/>
      <use x="439.941406" xlink:href="#DejaVuSans-6f"/>
      <use x="501.123047" xlink:href="#DejaVuSans-64"/>
      <use x="564.599609" xlink:href="#DejaVuSans-69"/>
      <use x="592.382812" xlink:href="#DejaVuSans-6e"/>
      <use x="655.761719" xlink:href="#DejaVuSans-67"/>
      <use x="719.238281" xlink:href="#DejaVuSans-20"/>
      <use x="751.025391" xlink:href="#DejaVuSans-28"/>
      <use x="790.039062" xlink:href="#DejaVuSans-64"/>
      <use x="853.515625" xlink:href="#DejaVuSans-69"/>
      <use x="881.298828" xlink:href="#DejaVuSans-73"/>
      <use x="933.398438" xlink:href="#DejaVuSans-63"/>
      <use x="988.378906" xlink:href="#DejaVuSans-72"/>
      <use x="1029.460938" xlink:href="#DejaVuSans-65"/>
      <use x="1090.984375" xlink:href="#DejaVuSans-74"/>
      <use x="1130.193359" xlink:href="#DejaVuSans-69"/>
      <use x="1157.976562" xlink:href="#DejaVuSans-7a"/>
      <use x="1210.466797" xlink:href="#DejaVuSans-65"/>
      <use x="1271.990234" xlink:href="#DejaVuSans-64"/>
      <use x="1335.466797" xlink:href="#DejaVuSans-29"/>
     </g>
    </g>
   </g>
   <g id="line2d_14">
    <path clip-path="url(#p09d818985b)" d="M 58.35767 140.422727 
L 67.31211 140.422727 
L 67.434355 78.65 
L 67.495478 140.422727 
L 67.526039 78.65 
L 67.617723 78.65 
L 67.739967 140.422727 
L 89.255072 140.422727 
L 89.377317 78.65 
L 89.438439 140.422727 
L 89.469001 78.65 
L 89.560684 78.65 
L 89.682929 140.422727 
L 110.067268 140.422727 
L 110.189513 78.65 
L 110.250636 140.422727 
L 110.281197 78.65 
L 110.372881 78.65 
L 110.495126 140.422727 
L 112.084309 140.422727 
L 112.206554 78.65 
L 112.451044 78.65 
L 112.573289 140.422727 
L 113.001146 140.422727 
L 113.123391 78.65 
L 113.215075 140.422727 
L 113.306759 78.65 
L 113.33732 140.422727 
L 113.398442 78.65 
L 113.459565 78.65 
L 113.551248 140.422727 
L 113.673493 78.65 
L 113.734616 140.422727 
L 113.765177 78.65 
L 113.856861 78.65 
L 113.917983 140.422727 
L 113.948544 78.65 
L 114.162473 78.65 
L 114.284718 140.422727 
L 114.406963 78.65 
L 114.529208 140.422727 
L 114.59033 140.422727 
L 114.712575 78.65 
L 114.83482 140.422727 
L 114.895942 140.422727 
L 115.018187 78.65 
L 115.07931 78.65 
L 115.201555 140.422727 
L 115.3238 78.65 
L 115.384922 78.65 
L 115.507167 140.422727 
L 125.072831 140.422727 
L 125.195076 78.65 
L 125.378444 78.65 
L 125.500689 140.422727 
L 130.176556 140.422727 
L 130.298801 78.65 
L 130.482169 78.65 
L 130.604414 140.422727 
L 131.704618 140.422727 
L 131.826863 78.65 
L 131.949108 140.422727 
L 135.127475 140.422727 
L 135.24972 78.65 
L 135.433088 78.65 
L 135.555333 140.422727 
L 139.833905 140.422727 
L 139.956149 78.65 
L 140.078394 140.422727 
L 142.70666 140.422727 
L 142.828905 78.65 
L 142.890027 140.422727 
L 142.920589 78.65 
L 143.012272 78.65 
L 143.134517 140.422727 
L 148.574416 140.422727 
L 148.696661 78.65 
L 148.818906 140.422727 
L 150.530334 140.422727 
L 150.652579 78.65 
L 150.835947 78.65 
L 150.958192 140.422727 
L 151.141559 140.422727 
L 151.263804 78.65 
L 151.447171 78.65 
L 151.569416 140.422727 
L 151.691661 140.422727 
L 151.813906 78.65 
L 151.844467 78.65 
L 151.90559 140.422727 
L 151.936151 78.65 
L 151.997273 78.65 
L 152.119518 140.422727 
L 152.302886 140.422727 
L 152.42513 78.65 
L 152.486253 78.65 
L 152.577937 140.422727 
L 152.608498 78.65 
L 152.66962 140.422727 
L 152.700182 140.422727 
L 152.791865 78.65 
L 152.91411 140.422727 
L 152.944671 140.422727 
L 153.066916 78.65 
L 153.128039 78.65 
L 153.1586 140.422727 
L 153.219722 78.65 
L 153.280845 78.65 
L 153.341967 140.422727 
L 153.372529 78.65 
L 153.617018 78.65 
L 153.708702 140.422727 
L 153.800386 78.65 
L 153.922631 140.422727 
L 154.075437 140.422727 
L 154.197682 78.65 
L 154.319927 140.422727 
L 154.381049 140.422727 
L 154.442172 78.65 
L 154.472733 140.422727 
L 154.90059 140.422727 
L 154.931151 78.65 
L 154.992274 140.422727 
L 155.206202 140.422727 
L 155.328447 78.65 
L 155.359008 78.65 
L 155.481253 140.422727 
L 155.603498 140.422727 
L 155.725743 78.65 
L 155.847988 140.422727 
L 160.676662 140.422727 
L 160.798907 78.65 
L 160.860029 78.65 
L 160.982274 140.422727 
L 163.152122 140.422727 
L 163.274366 78.65 
L 163.396611 140.422727 
L 163.702224 140.422727 
L 163.732785 78.65 
L 163.793907 140.422727 
L 167.125081 140.422727 
L 167.247326 78.65 
L 167.369571 140.422727 
L 167.491816 78.65 
L 167.552938 140.422727 
L 167.5835 78.65 
L 167.797428 78.65 
L 167.919673 140.422727 
L 174.429215 140.422727 
L 174.55146 78.65 
L 174.673705 140.422727 
L 175.835031 140.422727 
L 175.957276 78.65 
L 176.079521 140.422727 
L 176.874113 140.422727 
L 176.904674 128.068182 
L 176.965797 140.422727 
L 179.257889 140.422727 
L 179.380134 128.068182 
L 179.502379 140.422727 
L 181.549981 140.422727 
L 181.672226 78.65 
L 181.794471 140.422727 
L 181.916716 140.422727 
L 182.038961 78.65 
L 182.100083 78.65 
L 182.161205 140.422727 
L 182.191767 78.65 
L 182.344573 78.65 
L 182.405695 140.422727 
L 182.436256 78.65 
L 182.864114 78.65 
L 182.986359 140.422727 
L 183.01692 78.65 
L 183.078042 140.422727 
L 183.108603 140.422727 
L 183.139165 78.65 
L 183.200287 140.422727 
L 183.414216 140.422727 
L 183.536461 78.65 
L 183.567022 78.65 
L 183.597583 140.422727 
L 183.658706 78.65 
L 183.780951 78.65 
L 183.872634 140.422727 
L 183.994879 78.65 
L 184.117124 140.422727 
L 184.178246 140.422727 
L 184.300491 78.65 
L 184.361614 78.65 
L 184.422736 140.422727 
L 184.453298 78.65 
L 184.606104 78.65 
L 184.728349 140.422727 
L 184.850593 78.65 
L 184.911716 78.65 
L 184.972838 140.422727 
L 185.0034 78.65 
L 185.614624 78.65 
L 185.675747 140.422727 
L 185.706308 78.65 
L 186.592583 78.65 
L 186.653706 140.422727 
L 186.684267 78.65 
L 186.714828 78.65 
L 186.806512 140.422727 
L 186.928757 78.65 
L 186.989879 140.422727 
L 187.020441 78.65 
L 187.112124 78.65 
L 187.203808 140.422727 
L 187.326053 78.65 
L 187.387175 140.422727 
L 187.417737 78.65 
L 187.448298 78.65 
L 187.539982 140.422727 
L 187.631665 78.65 
L 187.75391 140.422727 
L 188.090084 140.422727 
L 188.212329 78.65 
L 188.304012 78.65 
L 188.426257 140.422727 
L 188.456818 140.422727 
L 188.48738 78.65 
L 188.548502 140.422727 
L 188.792992 140.422727 
L 188.823553 78.65 
L 188.884676 140.422727 
L 189.343094 140.422727 
L 189.465339 78.65 
L 189.526461 78.65 
L 189.648706 140.422727 
L 189.893196 140.422727 
L 189.923757 78.65 
L 189.98488 140.422727 
L 190.046002 140.422727 
L 190.168247 78.65 
L 190.412737 78.65 
L 190.534982 140.422727 
L 190.657227 140.422727 
L 190.779472 78.65 
L 190.840594 78.65 
L 190.901717 140.422727 
L 190.932278 78.65 
L 191.085084 78.65 
L 191.207329 140.422727 
L 191.268451 140.422727 
L 191.299013 128.068182 
L 191.360135 140.422727 
L 191.451819 140.422727 
L 191.512941 78.65 
L 191.543502 140.422727 
L 191.574064 140.422727 
L 191.696309 78.65 
L 191.757431 78.65 
L 191.879676 140.422727 
L 198.786513 140.422727 
L 198.908758 78.65 
L 199.000442 78.65 
L 199.122687 140.422727 
L 199.336616 140.422727 
L 199.458861 78.65 
L 199.489422 78.65 
L 199.550544 140.422727 
L 199.581105 78.65 
L 199.611667 78.65 
L 199.672789 140.422727 
L 199.70335 78.65 
L 199.978401 78.65 
L 200.100646 140.422727 
L 200.925799 140.422727 
L 200.986922 78.65 
L 201.017483 140.422727 
L 201.292534 140.422727 
L 201.414779 78.65 
L 201.475902 78.65 
L 201.598146 140.422727 
L 202.301055 140.422727 
L 202.4233 78.65 
L 202.637228 78.65 
L 202.728912 140.422727 
L 202.759473 78.65 
L 202.820596 140.422727 
L 202.851157 140.422727 
L 202.912279 78.65 
L 202.942841 140.422727 
L 208.535545 140.422727 
L 208.65779 78.65 
L 209.085647 78.65 
L 209.207892 140.422727 
L 209.269015 78.65 
L 209.299576 140.422727 
L 209.39126 140.422727 
L 209.452382 78.65 
L 209.482943 140.422727 
L 209.544066 140.422727 
L 209.574627 78.65 
L 209.635749 140.422727 
L 209.727433 140.422727 
L 209.788556 78.65 
L 209.819117 140.422727 
L 210.583148 140.422727 
L 210.705392 78.65 
L 210.766515 78.65 
L 210.88876 140.422727 
L 215.106209 140.422727 
L 215.197893 78.65 
L 215.320138 140.422727 
L 219.568149 140.422727 
L 219.690394 78.65 
L 219.812638 140.422727 
L 220.026567 140.422727 
L 220.148812 78.65 
L 220.209934 140.422727 
L 220.240496 78.65 
L 220.332179 78.65 
L 220.454424 140.422727 
L 223.693914 140.422727 
L 223.785598 78.65 
L 223.907843 140.422727 
L 223.938404 78.65 
L 223.999527 140.422727 
L 224.794119 140.422727 
L 224.916364 78.65 
L 224.946925 78.65 
L 225.038608 140.422727 
L 225.160853 78.65 
L 225.221976 78.65 
L 225.344221 140.422727 
L 227.116772 140.422727 
L 227.147333 128.068182 
L 227.208456 140.422727 
L 228.522588 140.422727 
L 228.644833 78.65 
L 228.705956 78.65 
L 228.767078 140.422727 
L 228.797639 78.65 
L 228.889323 78.65 
L 228.950446 140.422727 
L 228.981007 78.65 
L 229.072691 78.65 
L 229.133813 140.422727 
L 229.164374 78.65 
L 229.256058 78.65 
L 229.378303 140.422727 
L 234.695956 140.422727 
L 234.818201 78.65 
L 234.940446 140.422727 
L 235.123814 140.422727 
L 235.246059 78.65 
L 235.368304 140.422727 
L 239.096773 140.422727 
L 239.219018 78.65 
L 239.280141 78.65 
L 239.402386 140.422727 
L 241.266621 140.422727 
L 241.388865 78.65 
L 241.449988 78.65 
L 241.572233 140.422727 
L 242.091774 140.422727 
L 242.214019 78.65 
L 242.336264 140.422727 
L 244.964529 140.422727 
L 244.99509 128.068182 
L 245.056213 140.422727 
L 245.147896 140.422727 
L 245.270141 78.65 
L 245.453509 78.65 
L 245.575754 140.422727 
L 246.064733 140.422727 
L 246.186978 78.65 
L 246.309223 140.422727 
L 247.47055 140.422727 
L 247.592795 78.65 
L 247.653917 78.65 
L 247.776162 140.422727 
L 248.815244 140.422727 
L 248.937489 78.65 
L 249.059734 140.422727 
L 249.426468 140.422727 
L 249.548713 78.65 
L 249.670958 140.422727 
L 249.915448 140.422727 
L 250.037693 78.65 
L 250.098815 78.65 
L 250.22106 140.422727 
L 250.343305 140.422727 
L 250.373866 128.068182 
L 250.434989 140.422727 
L 255.783204 140.422727 
L 255.905449 78.65 
L 256.027694 140.422727 
L 265.073817 140.422727 
L 265.196062 78.65 
L 265.257185 140.422727 
L 265.287746 78.65 
L 265.379429 78.65 
L 265.501674 140.422727 
L 272.255706 140.422727 
L 272.377951 78.65 
L 272.561318 78.65 
L 272.683563 140.422727 
L 280.751727 140.422727 
L 280.81285 16.877273 
L 280.843411 140.422727 
L 291.325912 140.422727 
L 291.448157 78.65 
L 291.509279 140.422727 
L 291.539841 78.65 
L 291.631524 78.65 
L 291.753769 140.422727 
L 304.864536 140.422727 
L 304.986781 78.65 
L 305.170148 78.65 
L 305.231271 140.422727 
L 305.261832 78.65 
L 305.414638 78.65 
L 305.4452 140.422727 
L 305.506322 78.65 
L 305.628567 78.65 
L 305.750812 140.422727 
L 305.96474 140.422727 
L 306.086985 78.65 
L 306.178669 78.65 
L 306.270353 140.422727 
L 306.392598 78.65 
L 306.45372 78.65 
L 306.575965 140.422727 
L 306.637087 140.422727 
L 306.69821 78.65 
L 306.728771 140.422727 
L 307.431679 140.422727 
L 307.523363 78.65 
L 307.645608 140.422727 
L 307.676169 140.422727 
L 307.737292 78.65 
L 307.767853 140.422727 
L 307.890098 140.422727 
L 307.920659 78.65 
L 307.981781 140.422727 
L 308.134588 140.422727 
L 308.256832 78.65 
L 308.287394 78.65 
L 308.409639 140.422727 
L 310.946221 140.422727 
L 311.068465 78.65 
L 311.129588 78.65 
L 311.160149 140.422727 
L 311.221272 78.65 
L 311.282394 78.65 
L 311.404639 140.422727 
L 311.496323 140.422727 
L 311.618568 78.65 
L 312.138108 78.65 
L 312.260353 140.422727 
L 312.290915 140.422727 
L 312.382598 78.65 
L 312.474282 140.422727 
L 312.596527 78.65 
L 312.718772 140.422727 
L 312.749333 140.422727 
L 312.871578 78.65 
L 312.993823 140.422727 
L 313.146629 140.422727 
L 313.17719 78.65 
L 313.238313 140.422727 
L 313.452241 140.422727 
L 313.482802 78.65 
L 313.543925 140.422727 
L 313.635609 140.422727 
L 313.66617 78.65 
L 313.727292 140.422727 
L 313.757854 140.422727 
L 313.849537 78.65 
L 313.971782 140.422727 
L 314.032905 140.422727 
L 314.063466 78.65 
L 314.124588 140.422727 
L 314.15515 140.422727 
L 314.185711 78.65 
L 314.246833 140.422727 
L 315.010864 140.422727 
L 315.133109 78.65 
L 315.16367 78.65 
L 315.285915 140.422727 
L 315.347037 140.422727 
L 315.469282 78.65 
L 315.530405 78.65 
L 315.591527 140.422727 
L 315.622088 78.65 
L 315.774895 78.65 
L 315.836017 140.422727 
L 315.866578 78.65 
L 315.958262 78.65 
L 316.080507 140.422727 
L 316.202752 78.65 
L 318.586528 78.65 
L 318.708772 140.422727 
L 324.790457 140.422727 
L 324.912702 78.65 
L 325.096069 78.65 
L 325.218314 140.422727 
L 325.401681 140.422727 
L 325.523926 78.65 
L 325.554488 78.65 
L 325.676732 140.422727 
L 325.737855 140.422727 
L 325.8601 78.65 
L 325.951784 78.65 
L 325.982345 140.422727 
L 326.043467 78.65 
L 326.165712 78.65 
L 326.287957 140.422727 
L 326.34908 78.65 
L 326.379641 140.422727 
L 326.410202 140.422727 
L 326.532447 78.65 
L 326.685253 78.65 
L 326.807498 140.422727 
L 326.929743 140.422727 
L 327.051988 78.65 
L 327.265916 78.65 
L 327.388161 140.422727 
L 327.540967 140.422727 
L 327.663212 78.65 
L 327.724335 78.65 
L 327.816018 140.422727 
L 327.907702 78.65 
L 328.029947 140.422727 
L 328.274437 140.422727 
L 328.396682 78.65 
L 330.84158 78.65 
L 330.963825 140.422727 
L 331.177754 140.422727 
L 331.208315 78.65 
L 331.269437 140.422727 
L 331.299998 140.422727 
L 331.391682 78.65 
L 331.452805 140.422727 
L 331.483366 78.65 
L 332.155713 78.65 
L 332.277958 140.422727 
L 332.33908 140.422727 
L 332.369641 78.65 
L 332.430764 140.422727 
L 333.103111 140.422727 
L 333.133672 78.65 
L 333.194795 140.422727 
L 333.286478 140.422727 
L 333.31704 78.65 
L 333.378162 140.422727 
L 333.530968 140.422727 
L 333.653213 78.65 
L 333.775458 140.422727 
L 333.897703 78.65 
L 334.019948 140.422727 
L 334.203315 140.422727 
L 334.32556 78.65 
L 334.356121 78.65 
L 334.417244 140.422727 
L 334.447805 78.65 
L 334.508927 78.65 
L 334.57005 140.422727 
L 334.600611 78.65 
L 334.692295 78.65 
L 334.81454 140.422727 
L 336.709336 140.422727 
L 336.831581 78.65 
L 336.923264 78.65 
L 337.045509 140.422727 
L 337.137193 140.422727 
L 337.259438 78.65 
L 337.32056 78.65 
L 337.442805 140.422727 
L 337.748418 140.422727 
L 337.870662 78.65 
L 337.931785 78.65 
L 338.05403 140.422727 
L 338.176275 140.422727 
L 338.29852 78.65 
L 338.420765 140.422727 
L 338.848622 140.422727 
L 338.970867 78.65 
L 339.031989 140.422727 
L 339.06255 78.65 
L 340.346122 78.65 
L 340.407244 140.422727 
L 340.437806 78.65 
L 340.498928 78.65 
L 340.621173 140.422727 
L 340.80454 140.422727 
L 340.926785 78.65 
L 341.018469 78.65 
L 341.140714 140.422727 
L 341.171275 140.422727 
L 341.29352 78.65 
L 341.354642 78.65 
L 341.476887 140.422727 
L 341.721377 140.422727 
L 341.843622 78.65 
L 341.965867 140.422727 
L 342.088112 140.422727 
L 342.210357 78.65 
L 342.332602 140.422727 
L 342.974388 140.422727 
L 343.066071 78.65 
L 343.127194 140.422727 
L 343.157755 78.65 
L 343.188316 78.65 
L 343.310561 140.422727 
L 359.96643 140.422727 
L 360.027553 128.068182 
L 360.058114 140.422727 
L 360.577655 140.422727 
L 360.608216 128.068182 
L 360.669339 140.422727 
L 366.017554 140.422727 
L 366.139798 128.068182 
L 366.262043 140.422727 
L 382.765107 140.422727 
L 382.887351 78.65 
L 382.948474 140.422727 
L 382.979035 78.65 
L 383.070719 78.65 
L 383.192964 140.422727 
L 401.468578 140.422727 
L 401.590823 78.65 
L 401.77419 78.65 
L 401.896435 140.422727 
L 402.26317 140.422727 
L 402.385415 78.65 
L 402.446537 140.422727 
L 402.477099 78.65 
L 402.568782 78.65 
L 402.691027 140.422727 
L 413.44858 140.422727 
L 413.44858 140.422727 
" style="fill:none;stroke:#008000;stroke-linecap:square;stroke-width:1.5;"/>
   </g>
   <g id="patch_3">
    <path d="M 40.603125 146.6 
L 40.603125 10.7 
" style="fill:none;stroke:#000000;stroke-linecap:square;stroke-linejoin:miter;stroke-width:0.8;"/>
   </g>
   <g id="patch_4">
    <path d="M 431.203125 146.6 
L 431.203125 10.7 
" style="fill:none;stroke:#000000;stroke-linecap:square;stroke-linejoin:miter;stroke-width:0.8;"/>
   </g>
   <g id="patch_5">
    <path d="M 40.603125 146.6 
L 431.203125 146.6 
" style="fill:none;stroke:#000000;stroke-linecap:square;stroke-linejoin:miter;stroke-width:0.8;"/>
   </g>
   <g id="patch_6">
    <path d="M 40.603125 10.7 
L 431.203125 10.7 
" style="fill:none;stroke:#000000;stroke-linecap:square;stroke-linejoin:miter;stroke-width:0.8;"/>
   </g>
  </g>
 </g>
 <defs>
  <clipPath id="p09d818985b">
   <rect height="135.9" width="390.6" x="40.603125" y="10.7"/>
  </clipPath>
 </defs>
</svg>
